<?xml version="1.0" encoding="UTF-8"?>
<!DOCTYPE svg PUBLIC "-//W3C//DTD SVG 1.1//EN" "http://www.w3.org/Graphics/SVG/1.1/DTD/svg11.dtd">
<!-- Creator: CorelDRAW 2019 (64-Bit) -->
<svg xmlns="http://www.w3.org/2000/svg" xml:space="preserve" width="173.433mm" height="209.199mm" version="1.1" style="shape-rendering:geometricPrecision; text-rendering:geometricPrecision; image-rendering:optimizeQuality; fill-rule:evenodd; clip-rule:evenodd"
viewBox="0 0 173.413 209.1741"
 xmlns:xlink="http://www.w3.org/1999/xlink"
 xmlns:xodm="http://www.corel.com/coreldraw/odm/2003">
 <defs>
  <style type="text/css">
   <![CDATA[
    .fil2 {fill:#006BB4}
    .fil3 {fill:#EC3237}
    .fil0 {fill:#FEDD21}
    .fil1 {fill:white}
   ]]>
  </style>
 </defs>
 <g id="Layer_x0020_1">
  <metadata id="CorelCorpID_0Corel-Layer"/>
  <g id="_733690432">
   <path class="fil0" d="M45.0241 6.477l-2.0613 6.4786c-12.6121,0 -13.5675,0.0247 -13.5423,0.1847 0.017,0.1005 2.3629,1.8681 5.2038,3.9209 2.8497,2.0616 5.2963,3.8306 5.4304,3.9223 0.2518,0.1674 0.2011,0.3361 -1.8685,6.6459 -1.1652,3.5528 -2.0871,6.4945 -2.045,6.528 0.042,0.0422 0.2013,-0.0175 0.3519,-0.1092 0.1598,-0.1003 2.5813,-1.852 5.3974,-3.8961 2.8068,-2.0543 5.1703,-3.7725 5.2375,-3.8306 0.0749,-0.0509 2.4215,1.5756 5.4888,3.822 2.9496,2.1532 5.4386,3.947 5.5308,3.9965 0.0833,0.0422 0.1841,0.0597 0.2262,0.0175 0.042,-0.0335 -0.8713,-2.9839 -2.0279,-6.5615 -1.1564,-3.5703 -2.0869,-6.5032 -2.0619,-6.5032 0.0257,-0.0088 2.4972,-1.8026 5.506,-3.9805 3.0085,-2.1794 5.4221,-4.0053 5.3717,-4.0562 -0.0587,-0.0509 -3.1428,-0.1092 -6.855,-0.1266l-6.7544 -0.0335c-3.5361,-11.1443 -4.1395,-12.896 -4.2822,-12.896 -0.1343,0 -0.7457,1.7677 -2.2459,6.477zm78.8983 -0.0334l0 0 -2.0613 6.4523c-10.45,0.0509 -13.5337,0.1092 -13.5927,0.1601 -0.0665,0.0509 2.3465,1.8768 5.3552,4.0562 3.0085,2.1779 5.4807,3.9717 5.5059,3.9805 0.0249,0 -0.9054,2.933 -2.062,6.5032 -1.1566,3.5776 -2.0698,6.528 -2.0277,6.5615 0.042,0.0422 0.1427,0.0247 0.2262,-0.0175 0.0921,-0.0495 2.5814,-1.8433 5.5307,-3.9965 3.0671,-2.2463 5.4138,-3.8728 5.4894,-3.822 0.0665,0.0582 2.4302,1.7764 5.2377,3.8306 2.8153,2.0442 5.2375,3.7959 5.3965,3.8961 0.1506,0.0917 0.3099,0.1514 0.3518,0.1092 0.0422,-0.0335 -0.8797,-2.9753 -2.0446,-6.528 -2.0699,-6.3099 -2.1206,-6.4785 -1.8688,-6.6459 0.1342,-0.0917 2.5807,-1.8608 5.4304,-3.9223 2.8409,-2.0529 5.1868,-3.8205 5.2041,-3.9209 0.0249,-0.16 -0.9305,-0.1847 -6.7544,-0.1847l-6.788 0c-3.511,-11.0789 -4.1646,-12.9557 -4.2909,-12.9557 -0.1254,0 -0.779,1.8768 -2.2374,6.4436z"/>
   <path class="fil1" d="M80.9664 35.934c-0.8377,0.0669 -2.5978,0.2343 -3.9219,0.3856 -1.3157,0.1426 -3.3856,0.4262 -4.6006,0.6372 -1.215,0.2008 -3.1256,0.5688 -4.2322,0.8118 -1.1145,0.243 -2.874,0.6794 -3.9135,0.9559 -1.0388,0.2764 -2.9495,0.854 -4.2316,1.2745 -1.2819,0.419 -3.0421,1.0301 -3.9132,1.3574 -0.8633,0.3259 -2.3465,0.9209 -3.2855,1.3238 -0.9297,0.3929 -2.6649,1.1902 -3.8463,1.759 -1.1816,0.5703 -3.1427,1.5931 -4.3577,2.271 -1.215,0.6795 -3.1421,1.8274 -4.2902,2.5563 -1.1486,0.7288 -2.908,1.919 -3.9139,2.6318 -1.0054,0.7202 -2.6228,1.9438 -3.5946,2.7236 -0.9724,0.7783 -2.4222,1.9859 -3.2262,2.6813 -0.7963,0.7042 -2.4052,2.2114 -3.5789,3.3594 -1.1651,1.1493 -2.7653,2.7919 -3.5531,3.6629 -0.7875,0.8632 -2.0113,2.2879 -2.7233,3.1512 -0.7127,0.8713 -1.8942,2.3716 -2.6234,3.3434 -0.7289,0.9724 -2.0192,2.824 -2.8659,4.106 -0.8463,1.282 -2.0948,3.3019 -2.7734,4.4834 -0.6707,1.1737 -1.7351,3.1678 -2.3636,4.4164 -0.6286,1.2487 -1.3912,2.841 -1.7009,3.5281 -0.3105,0.6956 -0.9055,2.1204 -1.3242,3.1593 -0.4104,1.0394 -1.098,2.883 -1.5084,4.0981 -0.4108,1.215 -1.0222,3.1756 -1.366,4.3578 -0.3348,1.1815 -0.8377,3.1671 -1.1146,4.4157 -0.2848,1.2492 -0.662,3.0926 -0.8297,4.098 -0.1757,1.0139 -0.4104,2.4556 -0.5108,3.2178 -0.1006,0.7711 -0.2769,2.2459 -0.3774,3.2854 -0.1085,1.0388 -0.2597,3.3683 -0.3435,5.1784 -0.109,2.5143 -0.109,4.0396 0,6.5617 0.0838,1.8022 0.235,4.1316 0.3435,5.1705 0.1005,1.0394 0.2768,2.5228 0.3774,3.2854 0.1005,0.7621 0.3352,2.2118 0.5108,3.2177 0.1677,1.0054 0.5449,2.849 0.8297,4.0975 0.2769,1.2492 0.7293,3.0672 1.0061,4.0396 0.2681,0.9719 0.779,2.6478 1.1394,3.7208 0.3519,1.081 0.8797,2.6148 1.1731,3.4103 0.3017,0.7963 0.8382,2.1625 1.207,3.0257 0.3604,0.8713 1.039,2.4046 1.5083,3.4105 0.461,1.0054 1.3071,2.6984 1.8772,3.7542 0.5614,1.056 1.5587,2.8241 2.2123,3.9135 0.6536,1.0894 1.7346,2.8075 2.4137,3.8213 0.6785,1.006 1.8686,2.6819 2.6479,3.7208 0.7875,1.0394 2.1623,2.7739 3.067,3.8462 0.9053,1.0816 2.4222,2.7825 3.3773,3.7879 0.9555,1.0059 2.5389,2.5898 3.5198,3.5202 0.9803,0.9218 2.6648,2.4215 3.7371,3.3269 1.0811,0.9047 2.8076,2.2788 3.8548,3.0585 1.0395,0.7877 2.8246,2.0449 3.9726,2.8075 1.148,0.7621 2.849,1.8351 3.7877,2.3966 0.9383,0.553 2.4972,1.4326 3.469,1.9527 0.9726,0.5194 2.7405,1.3992 3.914,1.9523 1.1815,0.5614 3.1758,1.4331 4.4244,1.9355 1.2485,0.503 3.3519,1.2743 4.668,1.7267 1.3235,0.4442 3.3099,1.0558 4.4159,1.3661 1.1151,0.3098 2.8746,0.7621 3.9219,0.9968 1.0395,0.2348 2.6819,0.5785 3.6536,0.7542 0.9724,0.1677 2.3382,0.4024 3.0337,0.5028 0.6955,0.1092 2.0619,0.2769 3.0335,0.3854 0.9725,0.1092 2.5308,0.2518 3.4697,0.3189 0.9381,0.0671 2.8073,0.1592 4.1651,0.2012 1.3741,0.05 3.8042,0.0165 5.4888,-0.0591 1.6673,-0.0835 3.8882,-0.2342 4.9272,-0.3347 1.0393,-0.1006 2.5141,-0.2768 3.2852,-0.3775 0.7621,-0.1006 2.2119,-0.3353 3.2178,-0.5108 1.0054,-0.1678 2.849,-0.5451 4.0976,-0.8213 1.2572,-0.2852 3.2432,-0.7882 4.4247,-1.123 1.1816,-0.3352 3.1343,-0.9553 4.3495,-1.3661 1.2149,-0.4105 2.9244,-1.0309 3.7878,-1.3827 0.8718,-0.3433 2.2624,-0.9304 3.1005,-1.2905 0.8299,-0.3604 2.732,-1.2737 4.2239,-2.0193 1.4916,-0.7548 3.8213,-2.0369 5.1789,-2.8496 1.357,-0.8047 2.891,-1.76 3.4105,-2.1034 0.5193,-0.3518 1.7095,-1.1815 2.6484,-1.8436 0.9383,-0.662 2.5391,-1.8771 3.5695,-2.6897 1.0224,-0.8219 2.3886,-1.9528 3.0251,-2.5143 0.6455,-0.5615 1.9362,-1.743 2.8658,-2.6147 0.9312,-0.8798 2.4894,-2.4467 3.4613,-3.4947 0.9718,-1.0388 2.4645,-2.7234 3.3185,-3.7543 0.8628,-1.0224 2.1707,-2.6648 2.9084,-3.6537 0.7375,-0.9889 1.9524,-2.7068 2.69,-3.8213 0.7376,-1.106 1.8012,-2.782 2.3628,-3.7209 0.5614,-0.9382 1.4083,-2.4134 1.8767,-3.2848 0.4787,-0.8631 1.2746,-2.4301 1.7778,-3.4694 0.4933,-1.039 1.2485,-2.69 1.6586,-3.6623 0.4191,-0.9719 1.1306,-2.757 1.5843,-3.9719 0.4526,-1.2152 1.0811,-3.0587 1.407,-4.1061 0.3273,-1.0394 0.8975,-3.0841 1.2657,-4.5419 0.3768,-1.4583 0.8803,-3.6958 1.1231,-4.9864 0.2431,-1.282 0.553,-3.1506 0.6956,-4.1652 0.1424,-1.0053 0.3433,-2.6813 0.4436,-3.7207 0.1092,-1.0389 0.2605,-3.3683 0.3433,-5.1705 0.1093,-2.5221 0.1093,-4.0474 0,-6.5617 -0.0828,-1.8101 -0.2341,-4.1396 -0.3433,-5.1784 -0.1004,-1.0395 -0.326,-2.8832 -0.5019,-4.0981 -0.1761,-1.2151 -0.5194,-3.2098 -0.7638,-4.4248 -0.2415,-1.2065 -0.6109,-2.8825 -0.8206,-3.7208 -0.2094,-0.8292 -0.6036,-2.3045 -0.8889,-3.2762 -0.2764,-0.9725 -0.7871,-2.6233 -1.1392,-3.6623 -0.3521,-1.0389 -1.0053,-2.8325 -1.4578,-3.9804 -0.4524,-1.14 -1.299,-3.1257 -1.8855,-4.4164 -0.5862,-1.282 -1.5755,-3.2934 -2.2128,-4.4749 -0.6285,-1.1816 -1.5757,-2.858 -2.0951,-3.7294 -0.5194,-0.8631 -1.5246,-2.4555 -2.2375,-3.528 -0.7042,-1.0809 -1.9686,-2.866 -2.7978,-3.9804 -0.8308,-1.1065 -2.1459,-2.7825 -2.933,-3.7207 -0.7798,-0.9389 -2.2885,-2.6314 -3.336,-3.7711 -1.0563,-1.132 -2.8575,-2.9331 -3.9981,-3.998 -1.1476,-1.0548 -2.8486,-2.5635 -3.7873,-3.3521 -0.9384,-0.7783 -2.6144,-2.1037 -3.7288,-2.933 -1.1065,-0.8293 -2.9836,-2.1445 -4.1652,-2.9244 -1.1816,-0.771 -2.7739,-1.7764 -3.5366,-2.2288 -0.7621,-0.4524 -2.2959,-1.3064 -3.4019,-1.9016 -1.1145,-0.595 -2.8746,-1.4752 -3.9134,-1.9612 -1.048,-0.4785 -2.4642,-1.1144 -3.1597,-1.417 -0.6951,-0.2924 -1.9778,-0.8045 -2.8405,-1.1304 -0.8719,-0.3274 -2.6312,-0.9385 -3.9139,-1.3574 -1.2821,-0.4205 -3.1927,-0.9981 -4.2318,-1.2745 -1.0387,-0.2765 -2.7988,-0.7129 -3.9132,-0.9559 -1.1066,-0.243 -2.8409,-0.5863 -3.8463,-0.7623 -1.006,-0.1761 -2.7404,-0.4262 -3.8549,-0.5703 -1.1065,-0.1339 -2.6733,-0.3099 -3.4693,-0.3841 -0.7963,-0.0757 -3.7544,-0.1601 -6.5703,-0.1848 -2.8069,-0.0248 -5.7904,0.0087 -6.6201,0.0669z"/>
   <path class="fil2" d="M83.1701 36.3777c-0.4523,0.0247 -1.7008,0.1091 -2.7733,0.1848 -1.0815,0.0757 -2.8662,0.2517 -3.9811,0.3856 -1.1058,0.1339 -3.0164,0.419 -4.2316,0.6284 -1.2151,0.2096 -3.0835,0.5689 -4.1652,0.8133 -1.0723,0.243 -2.8069,0.6692 -3.8461,0.9544 -1.0391,0.2852 -3.0588,0.8963 -4.4835,1.3749 -1.4247,0.4698 -3.4105,1.1814 -4.4163,1.5843 -1.0055,0.4016 -2.8825,1.1974 -4.1646,1.7851 -1.2907,0.5776 -3.3355,1.5917 -4.5506,2.2361 -1.215,0.6547 -3,1.6601 -3.9724,2.2463 -0.9719,0.5863 -2.6227,1.6339 -3.6617,2.3293 -1.048,0.7041 -2.7069,1.8782 -3.6956,2.6144 -0.989,0.7376 -2.64,2.0456 -3.6624,2.9083 -1.0223,0.854 -2.7654,2.4049 -3.8714,3.4364 -1.115,1.0301 -2.883,2.8153 -3.9389,3.9631 -1.0643,1.1401 -2.4471,2.7068 -3.0835,3.4695 -0.6285,0.7627 -1.6595,2.0363 -2.2794,2.8411 -0.612,0.7961 -1.6339,2.1874 -2.271,3.0921 -0.6285,0.8968 -1.6346,2.4051 -2.229,3.3439 -0.595,0.9383 -1.5422,2.5222 -2.1203,3.5275 -0.57,1.006 -1.5503,2.8582 -2.1703,4.1067 -0.6286,1.2486 -1.5084,3.1256 -1.9613,4.1646 -0.4524,1.0393 -1.1567,2.7989 -1.5753,3.9138 -0.4189,1.106 -1.0559,2.9247 -1.4162,4.039 -0.3604,1.1059 -0.9639,3.2092 -1.3321,4.6676 -0.3774,1.4582 -0.8804,3.6457 -1.123,4.8607 -0.2349,1.2149 -0.5537,3.025 -0.6957,4.0389 -0.1427,1.006 -0.3437,2.5891 -0.4444,3.5281 -0.1005,0.9383 -0.2511,2.7569 -0.3352,4.0389 -0.092,1.4584 -0.1258,3.8804 -0.075,6.4362 0.0334,2.2544 0.1256,4.785 0.2091,5.6147 0.0756,0.8378 0.2517,2.4551 0.3938,3.6032 0.1428,1.1401 0.4024,2.8996 0.57,3.9133 0.1678,1.0059 0.5114,2.732 0.7542,3.847 0.2517,1.1058 0.6791,2.8739 0.9553,3.9132 0.2852,1.039 0.8798,3.0251 1.3328,4.4165 0.4522,1.3905 1.282,3.6616 1.8349,5.0449 0.5616,1.3905 1.4413,3.4354 1.9614,4.5418 0.5273,1.1145 1.4077,2.8741 1.9606,3.9135 0.5531,1.0474 1.4663,2.6648 2.02,3.603 0.5614,0.9304 1.6252,2.6063 2.3628,3.7209 0.7377,1.1065 2.0279,2.9251 2.8662,4.0394 0.8376,1.1061 2.0447,2.6399 2.6818,3.4026 0.6366,0.762 1.8014,2.1033 2.5893,2.9666 0.7877,0.8713 2.3044,2.4301 3.3688,3.4775 1.064,1.0388 2.6227,2.4886 3.4526,3.2177 0.8297,0.7292 2.0863,1.7852 2.7739,2.3466 0.6956,0.553 2.0364,1.5839 2.9746,2.2795 0.9303,0.6955 2.6983,1.9191 3.9139,2.7233 1.2151,0.7961 2.9996,1.9106 3.9719,2.4806 0.9718,0.57 2.9331,1.6175 4.3578,2.3381 1.4241,0.7206 3.1843,1.5753 3.9135,1.8936 0.7289,0.3268 2.1453,0.9218 3.1591,1.3241 1.0054,0.4025 2.7653,1.056 3.9133,1.4498 1.1401,0.3939 2.8496,0.9388 3.7879,1.2072 0.9304,0.2676 2.4972,0.6869 3.4696,0.9296 0.9717,0.2434 2.6142,0.612 3.6622,0.8213 1.0388,0.2097 2.8324,0.5199 3.9719,0.6956 1.148,0.1762 2.9081,0.4109 3.9133,0.5115 1.006,0.1085 2.7404,0.2511 3.8548,0.3181 1.1065,0.0757 3.4945,0.1343 5.3046,0.1343 1.8015,-0.0086 4.1066,-0.0586 5.112,-0.1257 1.0053,-0.0756 2.4551,-0.1926 3.2178,-0.2597 0.7625,-0.0756 2.4135,-0.2853 3.6621,-0.4529 1.2486,-0.1757 3.2684,-0.5108 4.4835,-0.7542 1.2151,-0.2426 3.4024,-0.7456 4.8601,-1.1144 1.4584,-0.3769 3.6457,-1.0055 4.8606,-1.3992 1.2153,-0.4024 3.1764,-1.0895 4.3494,-1.5424 1.1816,-0.4523 3.0337,-1.2151 4.1062,-1.701 1.0808,-0.4773 3.092,-1.4496 4.4834,-2.1703 1.3912,-0.712 3.3184,-1.768 4.2907,-2.3464 0.9718,-0.578 2.6813,-1.651 3.7877,-2.3802 1.1147,-0.737 2.9332,-2.0193 4.0391,-2.8574 1.1144,-0.8298 2.707,-2.0785 3.528,-2.774 0.8298,-0.695 2.112,-1.8016 2.8411,-2.4636 0.729,-0.6621 2.1204,-1.9942 3.0923,-2.9667 0.963,-0.9718 2.4717,-2.5642 3.336,-3.5361 0.8626,-0.9723 2.2025,-2.5562 2.9825,-3.528 0.7796,-0.9723 1.8855,-2.4221 2.4716,-3.2183 0.5791,-0.8041 1.6355,-2.338 2.3381,-3.4104 0.7041,-1.0724 1.7692,-2.7825 2.3554,-3.7879 0.5864,-1.0059 1.5,-2.6484 2.0281,-3.6537 0.5282,-1.0138 1.3399,-2.6562 1.8012,-3.6623 0.4612,-1.0053 1.2571,-2.8574 1.7604,-4.1059 0.5018,-1.2487 1.2396,-3.2349 1.6338,-4.4165 0.3929,-1.1815 0.9718,-3.0251 1.273,-4.0981 0.3028,-1.0808 0.7216,-2.6647 0.9312,-3.5359 0.2008,-0.8633 0.5194,-2.3301 0.6954,-3.2519 0.1849,-0.9133 0.4349,-2.363 0.5702,-3.2178 0.1427,-0.8461 0.3683,-2.5642 0.5019,-3.8128 0.1426,-1.2486 0.3187,-3.1849 0.3857,-4.2907 0.0757,-1.1145 0.1338,-3.5031 0.1338,-5.3047 0,-1.8016 -0.0581,-4.1901 -0.1338,-5.2962 -0.067,-1.1144 -0.2431,-3.0421 -0.3857,-4.2907 -0.1337,-1.2571 -0.419,-3.3019 -0.6283,-4.5505 -0.2097,-1.2486 -0.6039,-3.2933 -0.8788,-4.5419 -0.278,-1.2486 -0.7638,-3.1762 -1.0651,-4.2907 -0.3099,-1.106 -0.9558,-3.1843 -1.4417,-4.6091 -0.4858,-1.4161 -1.1902,-3.3519 -1.5668,-4.2907 -0.3769,-0.9298 -1.0141,-2.4387 -1.417,-3.3433 -0.4104,-0.8968 -1.2062,-2.5478 -1.7678,-3.6538 -0.5616,-1.1145 -1.4999,-2.8496 -2.0775,-3.8548 -0.579,-1.0059 -1.5597,-2.6227 -2.1881,-3.5952 -0.6198,-0.9717 -1.6498,-2.5056 -2.2959,-3.4104 -0.6372,-0.8968 -1.7181,-2.3465 -2.3962,-3.2183 -0.688,-0.8633 -1.8942,-2.3381 -2.6988,-3.2763 -0.8044,-0.9389 -2.5139,-2.774 -3.8044,-4.0804 -1.2818,-1.3166 -3.1844,-3.1265 -4.2154,-4.0402 -1.0303,-0.9136 -2.6733,-2.3045 -3.6536,-3.0843 -0.989,-0.787 -2.6144,-2.0106 -3.6202,-2.7308 -1.0055,-0.7216 -2.6227,-1.8186 -3.5953,-2.4384 -0.9719,-0.6211 -2.5641,-1.5843 -3.536,-2.1371 -0.9723,-0.5543 -2.3636,-1.3239 -3.0927,-1.7182 -0.7286,-0.3856 -2.2374,-1.1232 -3.3518,-1.6425 -1.1061,-0.5107 -3.0081,-1.3327 -4.2238,-1.8274 -1.215,-0.4859 -3.0665,-1.1814 -4.1059,-1.5422 -1.0389,-0.3506 -2.7484,-0.8962 -3.788,-1.1973 -1.0388,-0.31 -2.6062,-0.7377 -3.4695,-0.9559 -0.8713,-0.2183 -2.6899,-0.611 -4.0389,-0.8802 -1.3578,-0.2678 -3.5196,-0.6372 -4.8017,-0.8046 -1.2819,-0.176 -3.3269,-0.4103 -4.542,-0.5193 -1.2151,-0.1091 -3.9724,-0.2183 -6.1258,-0.243 -2.1538,-0.0248 -4.2822,-0.0248 -4.7351,0z"/>
   <path class="fil1" d="M83.4221 42.3194c-0.5195,0.0262 -1.9949,0.1339 -3.277,0.2343 -1.2907,0.1091 -3.1593,0.3099 -4.173,0.4524 -1.0061,0.1338 -2.8746,0.4524 -4.1651,0.6954 -1.2823,0.2444 -3.1259,0.646 -4.0976,0.8889 -0.9725,0.243 -2.6485,0.6954 -3.7293,1.0141 -1.0724,0.3099 -2.9752,0.9384 -4.2238,1.3908 -1.2571,0.4525 -3.159,1.1989 -4.2316,1.6513 -1.0814,0.4524 -3.2097,1.4578 -4.7351,2.2376 -1.5247,0.771 -3.6872,1.9437 -4.8015,2.6144 -1.1061,0.6619 -2.7569,1.7008 -3.6624,2.3045 -0.8962,0.611 -2.4886,1.7429 -3.528,2.5213 -1.0474,0.7885 -2.5222,1.9539 -3.2848,2.5897 -0.7627,0.6372 -2.271,1.9699 -3.3435,2.9674 -1.0815,0.9889 -2.7909,2.7068 -3.8135,3.8043 -1.0136,1.098 -2.3714,2.6234 -3.0165,3.3939 -0.6369,0.7628 -1.8519,2.296 -2.6819,3.4025 -0.8376,1.1145 -2.1033,2.8996 -2.8069,3.9805 -0.704,1.0724 -1.7515,2.7489 -2.3216,3.7207 -0.5698,0.9723 -1.7008,3.1006 -2.5141,4.7346 -0.8127,1.626 -1.7843,3.7043 -2.1533,4.6011 -0.3772,0.9048 -1.0137,2.5557 -1.4247,3.6623 -0.4102,1.1144 -1.0223,2.9581 -1.3655,4.1059 -0.344,1.1395 -0.8218,2.8746 -1.0731,3.8463 -0.2432,0.9723 -0.6369,2.7568 -0.8796,3.9724 -0.2349,1.2151 -0.5786,3.2598 -0.7462,4.5419 -0.1758,1.29 -0.3856,3.1336 -0.4774,4.1061 -0.109,1.1315 -0.1677,3.6286 -0.1677,6.9385 0.0086,3.9975 0.0587,5.6649 0.2263,7.3244 0.1177,1.1815 0.3604,3.1092 0.5363,4.2907 0.1762,1.1815 0.4859,2.9916 0.6958,4.039 0.2089,1.0394 0.6448,2.9166 0.9551,4.1652 0.3185,1.2486 0.989,3.5194 1.5,5.0449 0.5028,1.5247 1.1815,3.4604 1.5166,4.2901 0.327,0.8383 0.9218,2.2544 1.3242,3.1593 0.4024,0.8967 1.123,2.4306 1.6088,3.4023 0.4859,0.9725 1.4413,2.732 2.112,3.9135 0.6784,1.1815 1.8685,3.1091 2.6482,4.2907 0.7792,1.1815 2.095,3.0587 2.9332,4.1651 0.8376,1.1145 2.2373,2.8576 3.1171,3.8799 0.8798,1.0223 2.3716,2.6647 3.327,3.6452 0.9553,0.9889 2.4214,2.4221 3.2598,3.1927 0.8382,0.7712 2.1703,1.9442 2.9666,2.6148 0.7961,0.662 2.296,1.8521 3.3434,2.6313 1.0394,0.7877 2.7738,2.0113 3.8467,2.7154 1.081,0.712 2.5558,1.6503 3.2849,2.0862 0.7292,0.436 2.2624,1.2907 3.4105,1.9023 1.14,0.6205 3.1342,1.5924 4.4162,2.1788 1.2821,0.5785 3.3021,1.4247 4.4837,1.8772 1.1815,0.4529 2.8829,1.0645 3.7878,1.3577 0.8968,0.2932 2.6312,0.8046 3.8461,1.1395 1.2158,0.3274 3.319,0.8297 4.6766,1.115 1.3492,0.2762 3.4526,0.6535 4.6676,0.8292 1.2151,0.1762 3.2013,0.4194 4.4164,0.5364 1.701,0.1677 3.3768,0.2262 7.2652,0.2262 3.9219,0 5.5392,-0.05 7.2574,-0.2262 1.2149,-0.1171 3.1755,-0.3603 4.3576,-0.5279 1.1731,-0.1677 3.1337,-0.5109 4.3494,-0.7541 1.215,-0.2514 3.0665,-0.6786 4.106,-0.9469 1.0389,-0.2683 2.7484,-0.754 3.7878,-1.0729 1.0389,-0.3269 2.8911,-0.9554 4.106,-1.4163 1.2152,-0.4524 3.2265,-1.2736 4.4751,-1.8265 1.2571,-0.553 3.159,-1.4583 4.2321,-2.0199 1.0809,-0.5614 2.5557,-1.3576 3.2849,-1.785 0.7291,-0.4189 2.1203,-1.2736 3.0922,-1.8851 0.9723,-0.6206 2.5896,-1.7095 3.595,-2.4306 1.0058,-0.7286 2.4892,-1.8353 3.2848,-2.4802 0.7962,-0.637 2.0449,-1.676 2.7741,-2.3044 0.729,-0.6285 2.1118,-1.9108 3.0841,-2.8496 0.9633,-0.9383 2.4129,-2.4136 3.2091,-3.2762 0.8046,-0.8719 2.0281,-2.2631 2.7235,-3.0928 0.6954,-0.8377 1.8522,-2.3125 2.581,-3.2848 0.7289,-0.9719 1.9611,-2.732 2.741,-3.9134 0.7783,-1.1816 1.8769,-2.9417 2.4471,-3.9133 0.5689,-0.9725 1.6847,-3.0672 2.4719,-4.6676 0.7958,-1.5925 1.801,-3.7799 2.2447,-4.8609 0.4453,-1.0724 1.0986,-2.7738 1.4594,-3.7878 0.3593,-1.0053 0.8787,-2.5892 1.1653,-3.5281 0.275,-0.9382 0.7027,-2.447 0.9369,-3.3432 0.2444,-0.9054 0.6634,-2.7825 0.9398,-4.1652 0.2766,-1.3913 0.6198,-3.3184 0.7537,-4.2907 0.1427,-0.9719 0.3522,-2.6478 0.4611,-3.7288 0.1165,-1.1651 0.2255,-3.7379 0.2677,-6.369 0.0424,-2.7405 0.0176,-5.2376 -0.0756,-6.5618 -0.0756,-1.1815 -0.2255,-2.916 -0.3346,-3.8548 -0.1004,-0.9304 -0.3609,-2.7484 -0.5704,-4.039 -0.2094,-1.282 -0.5775,-3.2097 -0.8205,-4.2907 -0.2343,-1.0724 -0.6707,-2.8074 -0.9471,-3.8463 -0.2853,-1.0394 -0.8467,-2.883 -1.2483,-4.098 -0.4031,-1.2151 -1.1406,-3.2348 -1.6425,-4.4834 -0.5121,-1.2487 -1.324,-3.1257 -1.81,-4.1646 -0.4946,-1.0394 -1.3166,-2.6904 -1.8361,-3.6622 -0.5105,-0.9724 -1.4489,-2.6148 -2.0687,-3.6623 -0.6286,-1.0388 -1.6602,-2.6562 -2.2973,-3.5952 -0.6286,-0.9382 -1.6586,-2.38 -2.2797,-3.2177 -0.6198,-0.8297 -1.7503,-2.2545 -2.5055,-3.1507 -0.7447,-0.9053 -2.1705,-2.5141 -3.1512,-3.5871 -0.9882,-1.064 -2.6977,-2.7735 -3.8121,-3.8044 -1.1145,-1.0312 -2.6484,-2.3886 -3.4111,-3.0258 -0.7622,-0.6445 -2.2376,-1.8012 -3.2764,-2.5897 -1.0472,-0.7784 -2.6397,-1.9103 -3.5365,-2.5213 -0.9047,-0.6037 -2.5558,-1.6426 -3.6624,-2.3045 -1.1145,-0.6707 -3.2676,-1.8434 -4.8014,-2.6144 -1.5249,-0.7798 -3.6538,-1.7852 -4.7346,-2.2376 -1.0725,-0.4524 -2.9753,-1.1988 -4.2238,-1.6513 -1.2486,-0.4524 -3.1592,-1.081 -4.2317,-1.3908 -1.0729,-0.3187 -2.7489,-0.7711 -3.7207,-1.0141 -0.9723,-0.2429 -2.8246,-0.6445 -4.1065,-0.8889 -1.2821,-0.243 -3.1593,-0.5616 -4.1645,-0.6954 -1.006,-0.1426 -2.8245,-0.3434 -4.0397,-0.4524 -1.215,-0.1092 -3.8291,-0.2168 -5.807,-0.243 -1.9777,-0.0248 -4.0308,-0.0248 -4.5502,0.0087z"/>
   <path class="fil2" d="M81.4693 47.4231c-0.7629,0.0582 -2.1874,0.2008 -3.1593,0.3099 -0.9724,0.1092 -2.732,0.3609 -3.9135,0.5616 -1.1815,0.2008 -2.8245,0.5106 -3.662,0.6954 -0.8298,0.1848 -2.3631,0.5615 -3.4111,0.838 -1.0389,0.2852 -2.799,0.8046 -3.9134,1.1741 -1.106,0.3682 -2.983,1.0461 -4.1645,1.516 -1.1816,0.4684 -3,1.2483 -4.0395,1.7342 -1.0389,0.4859 -2.6898,1.3079 -3.6624,1.8361 -0.9717,0.5193 -2.4715,1.3734 -3.3433,1.9015 -0.8716,0.5194 -2.2289,1.3836 -3.0335,1.919 -0.7962,0.5368 -2.246,1.5684 -3.2178,2.2885 -0.9725,0.7289 -2.363,1.8183 -3.0921,2.4298 -0.7292,0.6114 -2.1789,1.8941 -3.2184,2.8495 -1.039,0.9554 -2.6983,2.6143 -3.6786,3.6787 -0.989,1.0644 -2.2881,2.5392 -2.8996,3.2684 -0.6116,0.7292 -1.7009,2.1198 -2.4301,3.0922 -0.7207,0.9717 -1.7516,2.4136 -2.2881,3.2177 -0.5357,0.7962 -1.3992,2.1617 -1.9272,3.0251 -0.5193,0.8717 -1.374,2.3715 -1.9021,3.3438 -0.528,0.9719 -1.3661,2.6479 -1.8607,3.7209 -0.5028,1.0809 -1.2321,2.7819 -1.6424,3.7879 -0.4024,1.0053 -0.9973,2.5977 -1.3155,3.5359 -0.3189,0.9389 -0.8298,2.5564 -1.1316,3.5952 -0.3018,1.0395 -0.7541,2.774 -1.0052,3.8547 -0.2433,1.0729 -0.6202,2.9502 -0.8213,4.1651 -0.2097,1.2066 -0.4944,3.2263 -0.6371,4.475 -0.1426,1.2486 -0.3182,3.6372 -0.3938,5.3046 -0.1093,2.2625 -0.1093,3.8043 0,6.1174 0.0835,1.7014 0.2596,4.0894 0.4023,5.3046 0.1342,1.215 0.419,3.1677 0.6199,4.3492 0.2012,1.1817 0.5615,3.0002 0.7963,4.0396 0.2428,1.039 0.7037,2.8325 1.0303,3.9804 0.3269,1.1395 0.8213,2.732 1.0981,3.5281 0.2768,0.7956 0.9053,2.4722 1.3998,3.7287 0.5023,1.2492 1.5081,3.4866 2.2453,4.9778 0.7376,1.4918 1.785,3.4861 2.3215,4.4249 0.5445,0.9304 1.5754,2.6063 2.3046,3.7208 0.7289,1.106 1.9691,2.8661 2.7569,3.9134 0.7796,1.0394 1.8021,2.3466 2.2629,2.8996 0.4687,0.5529 1.3992,1.6344 2.0862,2.3964 0.6791,0.7627 2.1369,2.2717 3.235,3.3441 1.1059,1.0808 2.6063,2.4721 3.3354,3.1006 0.7289,0.6285 1.7514,1.4832 2.2708,1.9021 0.5194,0.4189 1.6005,1.2486 2.3967,1.8437 0.796,0.5864 2.3629,1.6674 3.4693,2.3966 1.1145,0.7376 2.7906,1.7685 3.7294,2.3129 0.9383,0.5365 2.866,1.5504 4.2901,2.2544 1.4248,0.7036 3.327,1.592 4.2323,1.9608 0.8967,0.3775 2.4888,0.9889 3.5282,1.3662 1.0473,0.3767 2.9159,0.9803 4.173,1.3491 1.2487,0.3689 3.1508,0.8712 4.2237,1.123 1.0811,0.2512 2.7819,0.5951 3.7879,0.7707 1.0052,0.1762 2.7147,0.4358 3.7878,0.57 1.0809,0.134 2.7569,0.3102 3.7292,0.3939 0.9719,0.0919 3.5532,0.159 5.7398,0.159 2.707,-0.0085 4.7267,-0.0756 6.3106,-0.2177 1.2907,-0.1175 3.1343,-0.3268 4.1062,-0.4693 0.9723,-0.1341 2.6733,-0.4189 3.7878,-0.6286 1.1145,-0.2177 3.1256,-0.6705 4.4833,-1.0138 1.3492,-0.344 3.5367,-0.9889 4.8609,-1.4333 1.3155,-0.4352 3.2763,-1.1565 4.3571,-1.5917 1.0732,-0.4275 2.8327,-1.1988 3.9134,-1.7017 1.0729,-0.5023 2.6399,-1.282 3.4696,-1.7343 0.8298,-0.4439 2.1703,-1.1987 2.9667,-1.6675 0.796,-0.478 2.3044,-1.4247 3.3439,-2.1205 1.0474,-0.6955 2.5807,-1.768 3.4104,-2.3965 0.8297,-0.6286 1.9941,-1.5418 2.5891,-2.0284 0.587,-0.4859 1.7516,-1.4912 2.5899,-2.2374 0.8298,-0.737 2.4808,-2.3294 3.6623,-3.536 1.173,-1.2151 2.8325,-3.0256 3.67,-4.031 0.8383,-1.0053 2.036,-2.5057 2.6645,-3.3354 0.6285,-0.8377 1.6179,-2.2288 2.2042,-3.0922 0.5789,-0.8711 1.5174,-2.3465 2.079,-3.2848 0.5615,-0.9388 1.4083,-2.4136 1.8856,-3.2769 0.4684,-0.8712 1.1565,-2.2373 1.5334,-3.0335 0.3769,-0.7957 1.0052,-2.1868 1.3909,-3.0922 0.3854,-0.9048 0.9965,-2.4637 1.3659,-3.469 0.3696,-1.0059 0.9224,-2.6569 1.231,-3.6623 0.3201,-1.0059 0.8059,-2.7404 1.0823,-3.8461 0.2766,-1.1151 0.6781,-2.8997 0.8789,-3.981 0.211,-1.0726 0.4699,-2.5728 0.5789,-3.3435 0.1092,-0.7626 0.2853,-2.1539 0.3857,-3.0921 0.109,-0.9303 0.2605,-3.0922 0.3434,-4.7936 0.109,-2.3716 0.109,-3.8129 0,-6.1845 -0.0829,-1.7009 -0.2344,-3.8548 -0.3434,-4.793 -0.1004,-0.9389 -0.2765,-2.3301 -0.3857,-3.0928 -0.109,-0.762 -0.368,-2.2708 -0.5789,-3.3433 -0.2008,-1.081 -0.6286,-2.9836 -0.9457,-4.2321 -0.3114,-1.2486 -1.0155,-3.6032 -1.5596,-5.2376 -0.5355,-1.6254 -1.3662,-3.8713 -1.8273,-4.9858 -0.4597,-1.1065 -1.3647,-3.0922 -2.018,-4.4163 -0.646,-1.3156 -1.6688,-3.2434 -2.2726,-4.2909 -0.6023,-1.0388 -1.692,-2.7989 -2.4295,-3.9133 -0.729,-1.1065 -1.8011,-2.6397 -2.3628,-3.4025 -0.5703,-0.7626 -1.6177,-2.1034 -2.33,-2.9665 -0.7121,-0.8714 -2.1035,-2.4551 -3.0837,-3.5281 -0.9888,-1.0724 -2.6396,-2.7399 -3.6877,-3.7038 -1.0388,-0.9638 -2.7319,-2.4386 -3.7623,-3.2853 -1.031,-0.8465 -2.7489,-2.1617 -3.8134,-2.9241 -1.0725,-0.7638 -2.6727,-1.8521 -3.5609,-2.4136 -0.8884,-0.5703 -2.3217,-1.433 -3.1935,-1.9277 -0.8627,-0.5034 -2.5976,-1.4083 -3.8462,-2.0282 -1.2487,-0.6198 -3.1843,-1.5 -4.2902,-1.9612 -1.1151,-0.4611 -2.8916,-1.1479 -3.9474,-1.5247 -1.0641,-0.3768 -2.9076,-0.9631 -4.1061,-1.3166 -1.1985,-0.342 -3.0837,-0.8278 -4.1987,-1.0795 -1.106,-0.2517 -2.9829,-0.6212 -4.1645,-0.8133 -1.1816,-0.2008 -2.9166,-0.4452 -3.8464,-0.5528 -0.9389,-0.1092 -2.5055,-0.2517 -3.4781,-0.3274 -0.9718,-0.0669 -3.4439,-0.1179 -5.4888,-0.1092 -2.0532,0.0088 -4.3491,0.067 -5.1117,0.1179z"/>
   <g>
    <path class="fil1" d="M86.221 51.4285c-0.0087,0.2939 -0.1342,3.7216 -0.2683,7.6264 -0.1427,3.9049 -0.2433,7.1063 -0.2263,7.1143 0.0165,0.0084 2.405,0.1005 5.3131,0.1926 4.676,0.1512 5.2877,0.1512 5.3882,-0.0164 0.0671,-0.1092 0.1256,-0.6872 0.1256,-1.2992l0 -1.0974c-1.2237,-0.0171 -2.9416,-0.0671 -4.6089,-0.1342 -1.6676,-0.0585 -3.0423,-0.1258 -3.0503,-0.1506 -0.017,-0.0175 0.0671,-2.8239 0.1842,-6.2429 0.1171,-3.4117 0.1841,-6.2356 0.1506,-6.2778 -0.0335,-0.0408 -0.7207,-0.1077 -1.5248,-0.1586l-1.4665 -0.0757 -0.0165 0.5194zm-12.6456 0.2851l0 0c-0.5199,0.1426 -1.282,0.435 -1.693,0.662 -0.4102,0.2182 -1.0644,0.7114 -1.4497,1.0984 -0.394,0.3769 -0.8882,1.0301 -1.1059,1.4491 -0.2183,0.419 -0.4864,1.0635 -0.6036,1.4505 -0.1092,0.3841 -0.2347,1.1217 -0.2768,1.6425 -0.0414,0.5194 -0.0164,1.4243 0.0671,2.018 0.0756,0.5877 0.2262,1.4083 0.3269,1.8273 0.1091,0.4191 0.4194,1.2163 0.6877,1.7691 0.3767,0.7706 0.6948,1.198 1.3569,1.8265 0.4779,0.4523 1.1817,0.9719 1.5589,1.1651 0.3774,0.1842 1.0309,0.4273 1.4496,0.5358 0.4189,0.1091 1.1145,0.1928 1.5419,0.1928 0.4358,0 1.2323,-0.0837 1.7686,-0.2012 0.5443,-0.1086 1.3236,-0.3518 1.7344,-0.553 0.419,-0.1926 1.0561,-0.645 1.4249,-0.9967 0.4188,-0.4111 0.8213,-0.9811 1.106,-1.5589 0.2433,-0.5034 0.5194,-1.2817 0.6115,-1.7342 0.0925,-0.4539 0.1675,-0.838 0.1596,-0.8555 -0.0085,-0.016 -0.6957,-0.1426 -1.534,-0.2765 -1.1564,-0.1848 -1.5333,-0.2095 -1.6002,-0.0916 -0.0421,0.0829 -0.1093,0.4016 -0.1426,0.7201 -0.0336,0.3099 -0.1676,0.7958 -0.3098,1.0723 -0.1341,0.2764 -0.411,0.6619 -0.6121,0.8635 -0.2012,0.2012 -0.5865,0.478 -0.8633,0.6286 -0.394,0.2097 -0.737,0.2683 -1.5167,0.2683 -0.9048,0 -1.0897,-0.0422 -1.7095,-0.3941 -0.4525,-0.2517 -0.8377,-0.604 -1.1061,-1.0056 -0.2347,-0.3361 -0.5528,-1.0388 -0.7125,-1.5581 -0.1591,-0.5281 -0.3604,-1.4331 -0.4524,-2.0194 -0.0922,-0.5965 -0.1341,-1.4753 -0.0922,-1.9627 0.0422,-0.5441 0.1763,-1.097 0.344,-1.449 0.1592,-0.3099 0.4609,-0.7536 0.6785,-0.9893 0.2177,-0.2343 0.5951,-0.5267 0.8379,-0.6533 0.2433,-0.1251 0.7546,-0.2851 1.14,-0.3521 0.3767,-0.0757 0.9218,-0.0829 1.1986,-0.0335 0.2762,0.051 0.7286,0.2095 1.0054,0.3522 0.2846,0.1338 0.6704,0.4436 0.8716,0.6794 0.2007,0.2342 0.4274,0.5528 0.5024,0.7027 0.1427,0.2691 0.1512,0.2604 1.4668,-0.3012 0.7292,-0.31 1.3742,-0.5863 1.4247,-0.6111 0.0501,-0.0334 -0.0591,-0.3521 -0.2432,-0.7215 -0.1848,-0.3595 -0.5949,-0.921 -0.9134,-1.2397 -0.3188,-0.3186 -0.8802,-0.7288 -1.2405,-0.9136 -0.3689,-0.1848 -0.997,-0.4191 -1.3913,-0.5281 -0.4017,-0.1004 -1.1816,-0.1848 -1.7346,-0.1848 -0.5863,0.0087 -1.416,0.1179 -1.9606,0.2604zm29.8413 1.0228l0 0c-0.084,0.2343 -0.7711,2.2623 -1.5338,4.516 -0.7627,2.2623 -1.5083,4.6426 -1.6589,5.3045 -0.1925,0.8046 -0.2683,1.4668 -0.2432,2.0205 0.0334,0.5529 0.1591,1.0473 0.3853,1.5168 0.1847,0.3768 0.612,0.9719 0.9475,1.307 0.4017,0.4025 0.9888,0.7962 1.743,1.1645 0.6285,0.3018 1.6173,0.6707 2.2124,0.8219 0.8042,0.2006 1.332,0.2597 2.1447,0.2176 0.8297,-0.042 1.2323,-0.1257 1.7686,-0.3854 0.3769,-0.1847 0.9469,-0.6034 1.2573,-0.9389 0.3097,-0.3352 0.7705,-1.0644 1.0303,-1.6253 0.2517,-0.5534 1.1814,-3.0759 2.0532,-5.6146 0.8713,-2.5315 1.5925,-4.6513 1.5925,-4.7007 0,-0.0509 -0.6456,-0.2939 -1.4247,-0.5456 -0.7792,-0.2517 -1.4498,-0.403 -1.492,-0.3433 -0.0498,0.0494 -0.8041,2.1779 -1.6843,4.7094 -0.8882,2.5314 -1.743,4.9024 -1.9107,5.2713 -0.2347,0.4944 -0.4609,0.7542 -0.9047,1.0389 -0.411,0.2597 -0.7626,0.3853 -1.1066,0.3853 -0.2763,0 -0.8883,-0.117 -1.3572,-0.2597 -0.662,-0.1926 -0.9807,-0.3768 -1.4247,-0.8211 -0.3774,-0.3769 -0.612,-0.7456 -0.704,-1.106 -0.0921,-0.3859 -0.0921,-0.7462 0,-1.2905 0.0756,-0.419 0.8462,-2.7992 1.718,-5.3045 0.8718,-2.498 1.5838,-4.6091 1.5838,-4.6934 0.0085,-0.0916 -0.5529,-0.3274 -1.2905,-0.5528 -0.7208,-0.2255 -1.3656,-0.4277 -1.4327,-0.4524 -0.067,-0.0247 -0.1933,0.1339 -0.2684,0.3608zm-53.7831 8.5387l0 0c-2.5142,1.5 -4.7016,2.8243 -4.8608,2.9334l-0.2932 0.2012c6.0424,10.1562 7.8102,13.1229 7.8102,13.1399 0.0087,0.0166 2.254,-1.3076 5.003,-2.9501 2.7404,-1.6339 5.0112,-3 5.0449,-3.025 0.042,-0.0251 -0.2183,-0.511 -0.5616,-1.0811 -0.3517,-0.5613 -0.6621,-1.0473 -0.6955,-1.0644 -0.0334,-0.0164 -1.6845,0.9303 -3.6622,2.1034 -1.9778,1.1735 -3.6453,2.1289 -3.6957,2.1289 -0.0502,0 -0.5194,-0.7206 -1.0304,-1.609 -0.52,-0.8803 -0.9725,-1.693 -1.0146,-1.7935 -0.0414,-0.1426 0.8133,-0.7122 3.2013,-2.1454l3.2685 -1.9607c-0.7793,-1.2741 -1.0895,-1.7686 -1.1816,-1.9192 -0.1763,-0.2847 -0.1927,-0.2767 -3.4025,1.6674 -1.768,1.0731 -3.2598,1.9613 -3.3099,1.9613 -0.0507,0 -0.3603,-0.4443 -0.6791,-0.9803 -0.3269,-0.5364 -0.7121,-1.1902 -0.8548,-1.4498l-0.2682 -0.4779c5.4808,-3.2265 7.0732,-4.2071 7.0647,-4.258 0,-0.0494 -0.2684,-0.5601 -0.595,-1.1392 -0.3355,-0.5703 -0.6284,-1.0301 -0.6621,-1.0301 -0.0334,0.0088 -2.1203,1.2411 -4.6255,2.7483zm68.3815 3.2094l0 0 3.1927 -5.3292 0.3938 0.2343c0.2177,0.1251 1.3828,0.822 2.5978,1.5334 1.215,0.7129 2.7149,1.6425 3.3355,2.0616 0.6198,0.4277 1.374,1.0563 1.6839,1.3994 0.3774,0.4274 0.6205,0.8634 0.7547,1.3326 0.1335,0.4695 0.167,0.9218 0.117,1.4163 -0.042,0.4023 -0.2177,0.9974 -0.3775,1.324 -0.167,0.3269 -0.5443,0.8128 -0.8546,1.0811 -0.3012,0.2597 -0.7792,0.5529 -1.0561,0.6535 -0.2761,0.0921 -0.779,0.2096 -1.7093,0.3183l0.386 0.5364c0.2177,0.2933 0.4772,0.8468 0.5864,1.2322 0.1255,0.4523 0.1676,0.8882 0.109,1.2571 -0.0506,0.3183 -0.2268,0.8713 -0.3944,1.2316 -0.167,0.3688 -0.5443,0.9053 -0.8462,1.1987 -0.2932,0.2932 -0.7962,0.6619 -1.1059,0.8211 -0.3105,0.1506 -0.8718,0.3518 -1.2572,0.4274 -0.5784,0.1256 -0.8383,0.117 -1.5168,-0.0421 -0.5115,-0.1257 -1.3913,-0.5195 -2.3295,-1.0475 -0.8383,-0.4693 -2.6149,-1.5168 -3.9555,-2.3215 -1.341,-0.8041 -2.43,-1.5083 -2.43,-1.5583 0.008,-0.0505 0.3347,-0.6199 0.7456,-1.2657 0.4024,-0.6364 2.1703,-3.5615 3.9305,-6.4947z"/>
   </g>
   <path class="fil2" d="M121.6429 64.3925c-0.4687,0.7961 -0.8461,1.4918 -0.8547,1.5417 0,0.0506 0.4444,0.344 0.981,0.6541 0.5445,0.3014 1.2651,0.7372 1.6174,0.9554 0.3434,0.2262 0.9132,0.5109 1.2566,0.6365 0.545,0.1926 0.7127,0.2097 1.1737,0.0841 0.3688,-0.1091 0.6365,-0.2933 0.8798,-0.6206 0.2682,-0.3518 0.3437,-0.6029 0.3437,-1.0638 0,-0.528 -0.059,-0.6707 -0.4359,-1.0474 -0.2432,-0.2433 -1.2572,-0.9218 -2.2458,-1.5169 -0.9888,-0.5947 -1.8101,-1.0821 -1.8271,-1.0734 -0.0166,0 -0.4189,0.6532 -0.8885,1.4502zm-2.3964 4.1231l0 0c0.1006,-0.1592 0.2262,-0.2769 0.2853,-0.2513 0.0501,0.0164 0.8463,0.4859 1.7596,1.0474 0.9216,0.553 1.8771,1.1815 2.1203,1.3827 0.2429,0.2097 0.5359,0.5529 0.6365,0.7626 0.1006,0.2093 0.1847,0.603 0.1933,0.8798 0,0.3354 -0.1092,0.6871 -0.3354,1.0389 -0.1846,0.3018 -0.503,0.6285 -0.7125,0.7291 -0.2092,0.1006 -0.595,0.1928 -0.8549,0.1847 -0.2596,0 -0.7875,-0.1425 -1.1645,-0.3187 -0.386,-0.1757 -1.3911,-0.7622 -2.2459,-1.2902 -0.8548,-0.5364 -1.5504,-1.0059 -1.5589,-1.0558 0,-0.0421 0.3774,-0.6957 0.8382,-1.4498 0.4696,-0.7542 0.9305,-1.5004 1.039,-1.6594z"/>
   <path class="fil1" d="M38.5549 68.4906c0.0251,0 0.4774,0.3518 0.9975,0.7876 0.5194,0.4359 0.9468,0.8127 0.9468,0.8548 0.0086,0.0335 -0.6202,0.8127 -1.3827,1.7345 -1.2657,1.5082 -1.3747,1.6929 -1.215,1.8941 0.1005,0.1172 2.2538,1.9522 4.793,4.0641 2.5307,2.1204 4.6092,3.8968 4.6175,3.9473 0,0.05 -0.3772,0.5615 -0.8382,1.131 -0.4608,0.5785 -0.8713,1.0895 -0.9133,1.1481 -0.0421,0.0591 -2.2795,-1.7175 -4.9692,-3.9384 -2.6898,-2.2289 -4.9359,-4.0475 -4.9863,-4.0475 -0.0502,0.0086 -0.7208,0.7706 -1.4833,1.7009 -0.7621,0.9304 -1.4162,1.6931 -1.4499,1.6931 -0.0334,0 -0.4857,-0.3775 -1.9356,-1.6931l3.8799 -4.6425c2.1372,-2.5478 3.9053,-4.634 3.9388,-4.634zm47.9008 1.0303l0 0c-1.0817,0.0085 -2.6149,0.0591 -3.4109,0.1176 -0.7964,0.0501 -2.1621,0.1926 -3.0252,0.3104 -0.8712,0.1085 -2.3209,0.3432 -3.2262,0.5193 -0.897,0.1678 -2.1791,0.4439 -2.8411,0.6115 -0.6537,0.1677 -1.8772,0.503 -2.7148,0.7542 -0.8299,0.2518 -2.2795,0.7462 -3.2185,1.098 -0.9382,0.3518 -2.5219,1.0139 -3.5358,1.4832 -1.0061,0.4609 -2.5644,1.2572 -3.4697,1.7602 -0.9047,0.5023 -2.5222,1.4997 -3.5951,2.2117 -1.081,0.7128 -2.5306,1.7432 -3.2179,2.2795 -0.6954,0.545 -1.693,1.3577 -2.2122,1.8101 -0.5194,0.4524 -1.3992,1.2657 -1.9608,1.7937l-1.006 0.9717c-1.4661,0.1341 -1.9776,0.2012 -2.0867,0.2262 -0.1593,0.0507 -0.1673,0.2013 -0.0752,0.9725l0.1087 0.9132c-1.7597,2.154 -2.7655,3.461 -3.377,4.2908 -0.6035,0.8377 -1.5589,2.2538 -2.1203,3.1592 -0.5616,0.9048 -1.5754,2.7154 -2.2375,4.039 -0.6702,1.3156 -1.5669,3.2768 -1.9856,4.3492 -0.4196,1.0816 -0.9976,2.6983 -1.2742,3.6037 -0.2848,0.8968 -0.6873,2.3209 -0.8884,3.1506 -0.2091,0.8383 -0.5193,2.2795 -0.6955,3.2183 -0.1757,0.9383 -0.419,2.5308 -0.5445,3.5362 -0.1761,1.4331 -0.2262,2.7488 -0.2262,6.0586 0,3.3104 0.0501,4.6262 0.2262,6.0589 0.1256,1.0059 0.3689,2.5898 0.5445,3.5281 0.1676,0.9388 0.5362,2.5898 0.8131,3.6622 0.2762,1.073 0.7878,2.7904 1.1309,3.8213 0.3524,1.0225 0.9726,2.6649 1.3997,3.6538 0.419,0.9888 1.2067,2.6568 1.7432,3.6957 0.5363,1.039 1.4326,2.6313 1.9943,3.5367 0.5613,0.8962 1.5167,2.3209 2.1287,3.1506 0.603,0.8298 1.5839,2.1119 2.1869,2.841 0.595,0.7292 1.9107,2.1703 2.9165,3.2013 1.0055,1.0304 2.3716,2.338 3.0337,2.9161 0.6621,0.5699 1.7344,1.4581 2.3965,1.9692 0.6621,0.5193 1.3577,1.0473 1.5503,1.1901l0.3434 0.2511c1.1822,10.2745 1.5424,13.2576 1.5504,13.2661 0.017,0.008 1.7765,-0.1926 3.9137,-0.4444 3.6452,-0.4272 3.88,-0.4693 3.88,-0.7035 0,-0.1426 -0.1763,-1.785 -0.3859,-3.6623 -0.2093,-1.8771 -0.3683,-3.419 -0.3434,-3.4359 0.0165,-0.0165 0.4359,0.1427 0.9217,0.3604 0.486,0.2182 1.6925,0.7041 2.6813,1.0729 0.9891,0.3769 2.6654,0.9297 3.7214,1.2317 1.0554,0.3102 2.7485,0.729 3.7543,0.9388 1.0055,0.2177 2.6313,0.5023 3.6033,0.6365 0.9723,0.1426 2.6482,0.3268 3.7208,0.4109 1.1899,0.0835 3.1426,0.1171 4.9861,0.0757 1.6674,-0.0422 3.7708,-0.1678 4.6761,-0.277 0.8968,-0.1091 2.3208,-0.3103 3.1505,-0.4522 0.8384,-0.1428 2.4557,-0.4865 3.6039,-0.7627 1.1394,-0.2847 3.0165,-0.8213 4.1645,-1.2065 1.14,-0.386 2.8745,-1.0396 3.8469,-1.4584 0.9718,-0.4109 2.5641,-1.1651 3.5359,-1.668 0.9723,-0.5023 2.4637,-1.332 3.3105,-1.8515 0.8548,-0.5115 2.2458,-1.4247 3.0922,-2.0284 0.8547,-0.6029 2.2794,-1.7009 3.159,-2.4301 0.8884,-0.7376 2.2712,-1.9776 3.0672,-2.7569 0.8042,-0.7796 1.4583,-1.4582 1.4498,-1.5088 0,-0.0585 -0.2683,-0.1336 -0.6035,-0.1756 -0.3269,-0.0421 -1.651,-0.2597 -2.933,-0.4943l-2.3381 -0.4189c-1.2651,1.1309 -2.2039,1.9021 -2.8995,2.4385 -0.6958,0.5445 -1.9193,1.4241 -2.7151,1.9607 -0.796,0.528 -2.0197,1.2992 -2.7153,1.7095 -0.6956,0.4025 -2.1704,1.173 -3.2849,1.7095 -1.1063,0.5364 -2.5562,1.1816 -3.2177,1.4412 -0.6621,0.2603 -1.8521,0.6877 -2.6483,0.9474 -0.7962,0.2683 -2.1368,0.6535 -2.9667,0.8627 -0.8381,0.2097 -2.2544,0.52 -3.1591,0.6956 -0.9053,0.1762 -2.4893,0.4195 -3.5367,0.5364 -1.3576,0.1592 -2.8489,0.2262 -5.296,0.2262 -2.4721,0 -3.9218,-0.067 -5.2461,-0.2262 -1.0052,-0.117 -2.5977,-0.3603 -3.536,-0.5364 -0.9303,-0.1678 -2.4558,-0.5023 -3.3776,-0.7456 -0.9131,-0.2433 -2.2792,-0.6371 -3.0251,-0.8884 -0.7453,-0.2511 -2.0696,-0.7456 -2.9329,-1.0894 -0.8719,-0.3518 -2.3045,-1.0053 -3.1927,-1.4412 -1.3407,-0.6706 -1.6091,-0.8547 -1.6091,-1.0894 -0.0084,-0.1513 -0.1174,-1.1651 -0.2431,-2.2374 -0.1342,-1.081 -0.2348,-1.9778 -0.2177,-1.9948 0.0084,-0.0166 0.8463,0.4195 1.8521,0.9808 1.0053,0.553 2.6227,1.3657 3.5947,1.7931 0.9724,0.4273 2.4807,1.0309 3.3438,1.3326 0.8713,0.3098 2.43,0.7792 3.4776,1.0474 1.0393,0.2683 2.5141,0.6036 3.2767,0.7371 0.7708,0.1342 2.1621,0.3354 3.1008,0.4359 0.9298,0.1091 2.5222,0.2262 3.5282,0.2683 1.0136,0.0505 2.7731,0.025 3.9131,-0.0501 1.1481,-0.0756 2.8825,-0.2518 3.8548,-0.3939 0.9718,-0.1427 2.4216,-0.4024 3.2178,-0.5785 0.7962,-0.1757 2.1033,-0.5108 2.9082,-0.7456 0.796,-0.2347 2.1617,-0.687 3.0251,-1.006 0.8717,-0.3268 2.4884,-1.0303 3.6035,-1.5583 1.106,-0.5363 2.5807,-1.3076 3.2763,-1.7179 0.6957,-0.4025 1.693,-1.0225 2.2124,-1.3662 0.5194,-0.3518 1.4748,-1.0224 2.112,-1.4997 0.6449,-0.4694 1.1565,-0.8883 1.1394,-0.9218 -0.0164,-0.0336 -1.4498,-0.4274 -3.1927,-0.8883 -1.7346,-0.4529 -5.0279,-1.2992 -7.3159,-1.8857 -2.2959,-0.5865 -5.3045,-1.299 -6.6953,-1.5754 -1.3911,-0.2853 -3.4866,-0.6535 -4.6682,-0.8211 -1.1815,-0.1762 -2.8323,-0.369 -3.6621,-0.436 -0.8376,-0.0669 -2.279,-0.159 -3.2178,-0.201 -0.9381,-0.0501 -2.6983,-0.0167 -3.9131,0.0584 -1.2153,0.0757 -2.8911,0.2183 -3.7293,0.3268 -0.8299,0.1092 -2.3631,0.3689 -3.4104,0.5786 -1.0396,0.2091 -2.7405,0.6285 -3.7879,0.9383 -1.0395,0.3017 -2.5728,0.7962 -3.4025,1.1064 -0.8383,0.3098 -2.1454,0.8297 -2.908,1.1567 -0.7629,0.3268 -1.7181,0.7626 -2.1121,0.9633 -0.6621,0.3268 -0.7204,0.3938 -0.6621,0.7126 0.0337,0.1842 0.5701,4.8266 1.1986,10.3159 0.6287,5.4803 1.1232,9.9722 1.106,9.9807 -0.0164,0.008 -1.399,0.1677 -3.0665,0.3519 -1.6594,0.1926 -3.0421,0.3268 -3.0591,0.3103 -0.0165,-0.0256 -2.4217,-20.7746 -5.3382,-46.1076 -2.9161,-25.3331 -5.2706,-46.0986 -5.229,-46.1321 0.0504,-0.0336 1.4247,-0.2182 3.0671,-0.4109 1.6424,-0.1928 3,-0.3354 3.0084,-0.3184 0.0167,0.0251 1.7681,15.1763 3.8965,33.6713 2.1374,18.503 3.8968,33.6626 3.9219,33.6962 0.0255,0.0335 0.0755,0.0335 0.1005,0 0.0337,-0.0336 0.1178,-0.6285 0.1933,-1.3242 0.0751,-0.6955 0.2177,-2.3714 0.3268,-3.7207 0.1006,-1.3577 0.2426,-4.1986 0.3183,-6.3106 0.0755,-2.1198 0.1006,-5.1034 0.0584,-6.6281 -0.0419,-1.5254 -0.1255,-3.8549 -0.2012,-5.1705 -0.0671,-1.3242 -0.209,-3.4275 -0.3098,-4.6761 -0.109,-1.2491 -0.3102,-3.2597 -0.4442,-4.4755 -0.1428,-1.215 -0.4024,-3.1757 -0.5699,-4.3572 -0.1673,-1.1816 -0.4774,-3.1092 -0.6785,-4.2907 -0.2099,-1.1816 -0.6116,-3.277 -0.8885,-4.6676 -0.2848,-1.3913 -0.7205,-3.3774 -0.9716,-4.4163 -0.2434,-1.0394 -0.7212,-2.9502 -1.0561,-4.2323 -0.3353,-1.282 -0.9475,-3.4688 -1.3661,-4.8601 -0.4104,-1.3827 -0.989,-3.2598 -1.282,-4.1652 -0.2935,-0.8968 -0.5531,-1.7345 -0.578,-1.8601 -0.0337,-0.1341 0.0671,-0.2767 0.2676,-0.3774 0.2434,-0.117 0.3189,-0.2511 0.3189,-0.5364 -0.0084,-0.3183 0.142,-0.5023 0.9133,-1.1395 0.503,-0.4189 1.3661,-1.106 1.9192,-1.5254 0.5614,-0.4187 1.609,-1.1644 2.3379,-1.6508 0.7292,-0.4859 1.8352,-1.1816 2.4637,-1.5503 0.6286,-0.3604 1.9021,-1.0476 2.8411,-1.5163 0.9381,-0.4608 2.4129,-1.1316 3.2848,-1.4833 0.8633,-0.3525 2.2039,-0.8468 2.9667,-1.098 0.7625,-0.2598 2.2373,-0.687 3.2762,-0.9468 1.048,-0.2683 2.7739,-0.637 3.8548,-0.8132 1.073,-0.1757 2.5562,-0.3855 3.2854,-0.4524 0.7291,-0.0756 2.2874,-0.1677 3.4689,-0.2097 1.207,-0.0415 3.0592,-0.008 4.2322,0.067 1.1394,0.0841 2.8746,0.2598 3.8464,0.4025 0.9723,0.1426 2.447,0.4024 3.2847,0.5785 0.8297,0.1756 2.3636,0.5615 3.411,0.8627 1.0389,0.2932 2.8575,0.9218 4.0389,1.3911 1.1736,0.4694 2.9081,1.2322 3.8469,1.7016 0.9384,0.4687 2.2203,1.156 2.8404,1.5163 0.6286,0.3688 1.7937,1.1064 2.5897,1.643 0.7958,0.5357 2.045,1.4326 2.7736,2.0026 0.7292,0.57 1.8106,1.4662 2.405,1.9943l1.0729 0.9724c3.9135,-0.7542 5.2377,-1.0059 5.4725,-1.0474l0.4188 -0.0756c-2.7069,-2.6484 -4.0054,-3.8384 -4.6341,-4.3578 -0.6199,-0.5194 -1.7013,-1.3827 -2.3971,-1.9021 -0.6949,-0.528 -2.0027,-1.4498 -2.8989,-2.0363 -0.9053,-0.5951 -2.3801,-1.4919 -3.2853,-2.0028 -0.9048,-0.503 -2.296,-1.2237 -3.0923,-1.5924 -0.7961,-0.3775 -2.2203,-0.9889 -3.1591,-1.3577 -0.9384,-0.369 -2.4387,-0.9134 -3.3436,-1.1987 -0.9052,-0.2932 -2.5476,-0.754 -3.6622,-1.0223 -1.1145,-0.2678 -2.6982,-0.5945 -3.5364,-0.7371 -0.8297,-0.1341 -2.028,-0.3103 -2.6484,-0.3854 -0.6281,-0.0755 -1.9357,-0.1932 -2.9076,-0.2603 -0.9723,-0.0671 -2.6484,-0.1171 -3.7206,-0.1006zm50.8836 1.2826l0 0c0.0421,0.008 1.693,1.81 3.6622,3.997 1.9778,2.1958 3.6788,4.081 3.7793,4.2072 0.1763,0.2006 0.1171,0.2847 -0.6956,1.0304 -0.4858,0.4442 -0.9383,0.8046 -1.0054,0.8046 -0.0755,0 -1.3491,-1.3576 -2.841,-3.017 -2.1369,-2.363 -2.7568,-2.9831 -2.908,-2.8911 -0.1006,0.0585 -0.6785,0.5865 -2.3801,2.1958l5.1627 5.6814 -0.6621 0.6036c-0.3689,0.3353 -0.8047,0.712 -1.2992,1.0809l-2.2039 -2.4635c-1.2151,-1.3577 -2.3629,-2.6484 -2.8745,-3.26l-1.5333 1.3907c-0.8464,0.7627 -1.5333,1.4161 -1.5333,1.4497 0,0.0335 1.173,1.3747 2.6056,2.9666 1.4333,1.6009 2.6991,3.0002 2.816,3.1258 0.1843,0.2097 0.1763,0.2517 -0.1761,0.612 -0.2092,0.2097 -0.6536,0.6115 -1.5838,1.3741l-3.8463 -4.2907c-2.1199,-2.363 -3.8378,-4.3408 -3.8214,-4.3993 0.0171,-0.0671 2.5643,-2.3886 5.6484,-5.1705 3.0921,-2.7825 5.6564,-5.0449 5.6899,-5.0279zm-49.3084 7.2317l0 0c1.2487,0.0336 2.983,0.1428 3.8548,0.2433 0.8632,0.1005 2.0863,0.2683 2.7147,0.3769 0.6208,0.1091 1.9278,0.3852 2.8996,0.6285 0.9726,0.2346 2.5058,0.679 3.411,0.9803 0.9049,0.3103 2.12,0.7462 2.715,0.981 0.5871,0.2341 1.8941,0.8291 2.8995,1.3235 1.006,0.4944 2.4307,1.2571 3.1593,1.693 0.7292,0.4358 1.8355,1.1481 2.4642,1.5839 0.6199,0.4358 1.6758,1.1986 2.3293,1.7095 1.039,0.7961 1.1652,0.9302 0.947,1.0224 -0.1343,0.05 -1.1901,0.2933 -2.3297,0.5365 -1.1479,0.2426 -2.7988,0.5614 -3.6621,0.7034 -0.8713,0.1513 -2.3464,0.3524 -3.2848,0.4444 -0.939,0.1007 -2.6818,0.1842 -3.8797,0.1842 -1.2408,0 -2.8247,-0.0835 -3.6624,-0.1926 -0.8131,-0.1007 -2.1118,-0.3434 -2.8744,-0.5195 -0.7628,-0.1847 -1.7011,-0.4443 -2.0784,-0.57 -0.3855,-0.1342 -1.4077,-0.3603 -2.2795,-0.4943 -0.8628,-0.1342 -2.3124,-0.419 -3.2177,-0.6365 -0.897,-0.2183 -3.3183,-0.889 -5.3633,-1.5089 -2.0446,-0.6114 -4.5169,-1.3071 -5.4891,-1.5504 -0.972,-0.2511 -2.5052,-0.5694 -3.4107,-0.7285 -1.349,-0.2268 -2.1617,-0.2768 -4.5504,-0.2853 -1.5923,-0.0086 -3.3269,0.0335 -3.8461,0.0921 -0.8463,0.0926 -0.9304,0.0841 -0.7543,-0.0836 0.1005,-0.1092 1.0389,-0.6285 2.0783,-1.1566 1.039,-0.5193 2.7484,-1.2906 3.7878,-1.693 1.039,-0.4103 2.5473,-0.9383 3.3435,-1.1816 0.8047,-0.2427 2.2208,-0.6114 3.1593,-0.8297 0.9387,-0.2091 2.5306,-0.5023 3.5366,-0.6449 1.0052,-0.1507 2.5641,-0.3184 3.4694,-0.3768 0.9048,-0.0593 2.6647,-0.0841 3.9133,-0.0507zm-58.4514 5.0029l0 0c-0.6534,-0.025 -1.0558,0.025 -1.5167,0.2096 -0.3434,0.1342 -0.8883,0.4945 -1.198,0.7877 -0.3188,0.3019 -0.8048,0.8884 -1.0895,1.2986 -0.2854,0.4195 -1.2991,2.2124 -2.2544,3.9809 -0.9469,1.7681 -1.6845,3.2514 -1.6254,3.2935 0.0585,0.0336 1.6424,0.9218 3.5197,1.9691 1.8685,1.039 4.81,2.6734 6.5282,3.6117 1.7173,0.9468 3.1669,1.7266 3.2261,1.7266 0.0501,0 0.4018,-0.595 0.7876,-1.3156 0.3768,-0.7292 0.6621,-1.3412 0.6286,-1.3748 -0.0336,-0.0335 -1.2572,-0.7284 -2.7154,-1.5417 -1.4583,-0.8213 -2.6649,-1.5083 -2.6819,-1.5333 -0.0165,-0.025 0.1006,-0.3104 0.2684,-0.6371 0.1675,-0.3354 0.4607,-0.7876 0.6621,-1.0225 0.2182,-0.2511 0.5948,-0.4857 0.9301,-0.5948 0.3105,-0.0921 0.8549,-0.2093 1.1986,-0.2599 0.3518,-0.0499 1.8017,-0.1841 3.218,-0.2932l2.5891 -0.2012c0.9473,-1.6589 1.3747,-2.3966 1.5588,-2.6984l0.3354 -0.5614c-3.3269,0.1426 -4.8017,0.2433 -5.4303,0.3103 -0.704,0.0836 -1.4667,0.2762 -2.0197,0.5024 -0.486,0.2012 -0.9054,0.3688 -0.9469,0.3688 -0.0334,-0.0086 0.025,-0.4274 0.1256,-0.9468 0.1507,-0.7456 0.1677,-1.081 0.0501,-1.609 -0.075,-0.3688 -0.2261,-0.8631 -0.3433,-1.1064 -0.1092,-0.2427 -0.4444,-0.6872 -0.7377,-0.9803 -0.3018,-0.2934 -0.9133,-0.7206 -1.3655,-0.9384 -0.6371,-0.3189 -1.0145,-0.4194 -1.7018,-0.4443z"/>
   <path class="fil2" d="M28.3146 86.5162c-0.2683,0.1592 -0.7377,0.8628 -1.5755,2.346 -0.6621,1.1651 -1.1901,2.1539 -1.1821,2.196 0.0087,0.05 0.7462,0.4943 1.6344,0.9888 1.609,0.8882 1.6341,0.9047 1.8187,0.645 0.1006,-0.1427 0.578,-0.9469 1.0474,-1.7851 0.4694,-0.8462 0.9384,-1.8266 1.0389,-2.1953 0.1008,-0.3604 0.1512,-0.7877 0.1178,-0.9469 -0.0422,-0.1511 -0.1428,-0.4194 -0.2264,-0.5784 -0.0754,-0.1678 -0.3774,-0.436 -0.654,-0.595 -0.3269,-0.1928 -0.7036,-0.3019 -1.0725,-0.3019 -0.3353,0 -0.7205,0.0927 -0.9467,0.2268z"/>
   <g>
    <path class="fil1" d="M125.4813 88.2758c-0.2096,0.8797 -0.5114,2.2288 -0.6705,2.9914l-0.2848 1.3913c1.3827,1.8607 2.154,2.9666 2.6064,3.6622 0.4608,0.687 1.1564,1.8265 1.5502,2.5222 0.4026,0.6956 0.9383,1.6845 1.2067,2.2038 0.2596,0.5199 0.8212,1.7772 1.2571,2.7825 0.4272,1.0052 1.056,2.6482 1.3911,3.6536 0.3354,1.0139 0.7793,2.5143 0.989,3.3518 0.2177,0.8299 0.5279,2.2795 0.7034,3.2185 0.1676,0.9297 0.411,2.5806 0.528,3.6537 0.1341,1.2736 0.2097,3.0165 0.2182,4.9857 0,1.668 -0.0671,3.6872 -0.1512,4.4835 -0.0835,0.7961 -0.2346,2.0447 -0.3431,2.7739 -0.1092,0.7291 -0.3861,2.2039 -0.6287,3.2848 -0.2346,1.073 -0.6621,2.724 -0.9469,3.6538 -0.2853,0.9388 -0.8631,2.5897 -1.2904,3.6621 -0.4274,1.081 -1.1567,2.724 -1.6175,3.6622l-0.8382 1.7011c0.3774,1.7599 0.6791,3.3268 0.9138,4.6089 0.2427,1.2828 0.4523,2.3552 0.4687,2.3716 0.0258,0.017 0.3862,-0.4943 0.8049,-1.1395 0.4273,-0.6449 1.0725,-1.6759 1.4412,-2.3045 0.3602,-0.6285 1.1064,-2.0198 1.6424,-3.0921 0.5364,-1.0731 1.3491,-2.8911 1.8021,-4.0389 0.4609,-1.1487 1.1145,-3.0172 1.4578,-4.1652 0.3437,-1.1481 0.8045,-2.8746 1.0139,-3.8463 0.2095,-0.9723 0.4692,-2.3045 0.5783,-2.9666 0.1092,-0.6621 0.277,-1.9693 0.3854,-2.9081 0.1093,-0.9303 0.2264,-2.8661 0.2684,-4.2908 0.0505,-1.5417 0.017,-3.4189 -0.0671,-4.6676 -0.0836,-1.148 -0.2348,-2.7318 -0.3353,-3.5365 -0.1007,-0.7956 -0.3269,-2.2119 -0.5024,-3.1508 -0.1763,-0.9383 -0.5199,-2.4551 -0.7547,-3.3769 -0.2428,-0.9218 -0.6116,-2.2294 -0.8293,-2.8995 -0.2181,-0.6791 -0.7626,-2.1708 -1.215,-3.3189 -0.4529,-1.1395 -1.2492,-2.9331 -1.7687,-3.9719 -0.5279,-1.0394 -1.2065,-2.3465 -1.5245,-2.8995 -0.3104,-0.5615 -1.1567,-1.8942 -1.8693,-2.9666 -0.7121,-1.0811 -1.768,-2.5643 -2.3466,-3.3019 -0.5779,-0.7372 -1.4577,-1.8016 -1.9523,-2.363l-0.9051 -1.0139 -0.3855 1.6004zm-2.7903 -0.0165l0 0c-0.52,0.1006 -3.1092,0.662 -5.7491,1.2487 -2.6398,0.5778 -5.5643,1.1979 -6.5024,1.3654 -0.939,0.1763 -2.4979,0.4195 -3.4697,0.5366 -1.2401,0.1591 -2.6312,0.2261 -4.6676,0.2261 -2.1539,0 -3.2853,-0.0499 -4.3579,-0.2177 -0.7961,-0.1256 -2.0198,-0.3602 -2.7152,-0.5363 -0.6956,-0.1677 -1.6926,-0.4439 -2.2125,-0.6201 -0.5195,-0.1762 -1.0975,-0.3182 -1.2899,-0.3182l-0.3525 0c0,11.103 0.0421,14.514 0.1005,14.7401l0.0922 0.411 30.1768 -0.0085c0.2516,-3.1761 0.4359,-4.9777 0.57,-6.0587 0.1342,-1.0731 0.3938,-2.8326 0.5699,-3.9055 0.1842,-1.0808 0.5531,-3.0415 0.8378,-4.3572 0.2767,-1.3156 0.5279,-2.4721 0.5613,-2.5562 0.0256,-0.1007 -0.075,-0.1506 -0.3018,-0.1422 -0.1925,0 -0.7705,0.0921 -1.2899,0.1928zm-49.426 0.8126l0 0c-0.4859,0.0586 -1.2819,0.2262 -1.768,0.3774 -0.4858,0.1506 -1.2321,0.4438 -1.6424,0.6535 -0.4194,0.2093 -1.0144,0.553 -1.3242,0.7628 -0.3188,0.2176 -0.9639,0.762 -1.4332,1.215 -0.4774,0.4608 -1.1395,1.1982 -1.4663,1.651 -0.3352,0.4522 -0.779,1.1309 -0.9973,1.5162 -0.2098,0.3774 -0.5615,1.1151 -0.7793,1.6344 -0.2183,0.528 -0.5363,1.5169 -0.7125,2.2124 -0.2513,0.9969 -0.3349,1.6925 -0.394,3.3435 -0.0499,1.6678 -0.0164,2.3378 0.1599,3.3437 0.1255,0.6956 0.3766,1.743 0.5693,2.338 0.1928,0.5866 0.528,1.4412 0.7541,1.8937 0.2262,0.4444 0.6621,1.1986 0.9639,1.668 0.302,0.4688 0.9638,1.29 1.4668,1.818 0.5023,0.528 1.2566,1.2072 1.6761,1.5003 0.4187,0.3019 1.1815,0.7456 1.7007,0.9975 0.5196,0.2427 1.4079,0.5614 1.9614,0.712 0.7287,0.1842 1.3992,0.2597 2.3964,0.2597 0.9719,0 1.6761,-0.0755 2.3382,-0.2431 0.5194,-0.1422 1.3155,-0.4189 1.768,-0.6201 0.4523,-0.2012 1.1564,-0.595 1.5754,-0.8797 0.4193,-0.2768 1.0893,-0.8127 1.5003,-1.1902 0.4104,-0.3768 1.0808,-1.1315 1.4996,-1.6923 0.419,-0.5535 1.0647,-1.6345 1.4333,-2.3972 0.4273,-0.8711 0.8298,-1.9522 1.081,-2.8996 0.3767,-1.4241 0.3939,-1.6588 0.4104,-3.8547 0.0085,-1.81 -0.0415,-2.5726 -0.2176,-3.4019 -0.1257,-0.595 -0.3775,-1.5003 -0.5531,-2.0197 -0.1761,-0.5195 -0.612,-1.5084 -0.9724,-2.1954 -0.3519,-0.6877 -0.9888,-1.6766 -1.4162,-2.2045 -0.4274,-0.5358 -1.106,-1.2565 -1.5167,-1.6088 -0.4104,-0.3604 -1.1145,-0.8884 -1.5668,-1.1731 -0.4444,-0.2932 -1.2401,-0.687 -1.7681,-0.8882 -0.5199,-0.2012 -1.2571,-0.4189 -1.6344,-0.4945 -0.3853,-0.0671 -1.0391,-0.1512 -1.4583,-0.184 -0.4103,-0.0337 -1.148,-0.0086 -1.6339,0.0499zm75.6808 4.3579l0 0c1.7008,-0.6621 3.1761,-1.1817 3.2676,-1.1737 0.1004,0.017 0.662,1.2743 1.3661,3.1178 0.6533,1.7009 1.3415,3.5111 1.5175,4.039 0.2342,0.6705 0.3346,1.215 0.3346,1.8857 0.0088,0.737 -0.0509,1.0808 -0.2676,1.5167 -0.1515,0.3097 -0.4612,0.7876 -0.6868,1.0639 -0.2269,0.2683 -0.6968,0.6371 -1.0474,0.8132 -0.5282,0.2762 -0.7974,0.3268 -1.6441,0.3268 -0.7871,-0.0085 -1.1233,-0.0671 -1.5421,-0.2847 -0.3012,-0.1511 -0.5688,-0.3353 -0.6023,-0.4024 -0.0336,-0.0671 -0.134,-0.1255 -0.2182,-0.1255 -0.1004,0 -0.1922,0.2677 -0.2344,0.7204 -0.0422,0.4019 -0.2008,0.9719 -0.3521,1.2651 -0.1426,0.2933 -0.4524,0.7377 -0.6779,0.9889 -0.2271,0.2519 -0.697,0.595 -1.0402,0.7626 -0.3857,0.1842 -0.9807,0.3354 -1.516,0.3855 -0.5372,0.0505 -1.1323,0.017 -1.5176,-0.0751 -0.3433,-0.0841 -0.9303,-0.3439 -1.2905,-0.587 -0.3854,-0.2513 -0.8463,-0.7036 -1.1059,-1.0975 -0.2434,-0.3604 -1.1731,-2.5056 -2.0699,-4.7601 -1.1065,-2.7903 -1.584,-4.1309 -1.4832,-4.1815 0.0749,-0.0501 1.852,-0.7457 3.9298,-1.5503 2.0868,-0.8043 5.1783,-1.9943 6.8805,-2.6478z"/>
   </g>
   <path class="fil2" d="M46.5408 96.086c-0.5866,0.8883 -1.3406,2.0699 -1.6589,2.6313 -0.3189,0.553 -1.0645,2.0028 -1.6508,3.2179 -0.5867,1.2156 -1.3579,2.975 -1.7012,3.9138 -0.3523,0.9298 -0.8467,2.413 -1.0979,3.2762 -0.2434,0.8719 -0.62,2.3215 -0.8211,3.2184 -0.2013,0.9047 -0.478,2.4379 -0.6121,3.4104 -0.1421,0.9719 -0.3268,2.6149 -0.4019,3.6622 -0.0926,1.1565 -0.1262,2.9161 -0.0756,4.5421 0.0419,1.4582 0.1591,3.3853 0.2683,4.2907 0.1085,0.9046 0.3098,2.2959 0.4524,3.0921 0.1426,0.7961 0.4608,2.2459 0.7039,3.2178 0.2427,0.9723 0.7286,2.6147 1.0811,3.6622 0.3519,1.0388 0.8968,2.4886 1.2065,3.2177 0.3103,0.7292 0.9803,2.1454 1.4918,3.1513 0.5109,1.0053 1.3071,2.4551 1.7681,3.2177 0.4607,0.7626 1.2407,1.9608 1.735,2.6483 0.4944,0.6952 1.2065,1.6675 1.5834,2.1449 0.3859,0.4863 1.2656,1.5338 1.9697,2.33 0.6955,0.7876 1.9523,2.0863 2.782,2.874 1.4497,1.3746 1.5167,1.4247 1.5503,1.0816 0.0172,-0.1933 -0.0921,-1.4918 -0.2513,-2.8832l-0.2853 -2.5306c-1.2651,-1.3577 -2.0612,-2.2881 -2.5805,-2.9503 -0.528,-0.6615 -1.3413,-1.7343 -1.8023,-2.3964 -0.4609,-0.6621 -1.2401,-1.8857 -1.7344,-2.7149 -0.5031,-0.8298 -1.2403,-2.1959 -1.6424,-3.0256 -0.4111,-0.8377 -0.9976,-2.1447 -1.3073,-2.9076 -0.3187,-0.7627 -0.7796,-2.0113 -1.0308,-2.7739 -0.2512,-0.7627 -0.6537,-2.1539 -0.8969,-3.0922 -0.2347,-0.9388 -0.5698,-2.5562 -0.7455,-3.5951 -0.1677,-1.0474 -0.369,-2.5478 -0.436,-3.3439 -0.0755,-0.8043 -0.1339,-2.6479 -0.1339,-4.1061 0,-1.4582 0.0841,-3.444 0.1925,-4.4163 0.1006,-0.9719 0.3018,-2.4216 0.4444,-3.2179 0.1421,-0.7961 0.4024,-2.0447 0.578,-2.7739 0.1847,-0.7291 0.5115,-1.9271 0.7376,-2.6563 0.2263,-0.7292 0.6285,-1.8857 0.8884,-2.5812 0.2596,-0.6956 0.8041,-1.9779 1.198,-2.8409 0.4023,-0.8714 1.0309,-2.1283 1.4083,-2.8069l0.6784 -1.2236c-0.4608,-4.1652 -0.6371,-5.4224 -0.687,-5.4809 -0.0422,-0.05 -0.5701,0.6285 -1.1651,1.5167zm23.0621 -1.2906l0 0c-0.4189,0.0921 -0.989,0.2598 -1.265,0.3775 -0.277,0.1085 -0.52,0.2012 -0.5367,0.2012 -0.017,0 -0.0249,-0.0927 -0.0249,-0.2012 0.0079,-0.1592 -0.092,-0.1847 -0.6035,-0.1092 -0.3268,0.0507 -0.6114,0.0921 -0.62,0.1006 -0.0086,0.0086 0.4609,4.1317 1.039,9.168 0.5783,5.0278 1.0559,9.1673 1.0559,9.1844 0,0.0164 0.2183,0.025 0.4778,0.025 0.2598,0 0.5358,-0.0421 0.6114,-0.0921 0.1093,-0.0671 0.0758,-0.6451 -0.0921,-2.1119 -0.1839,-1.6089 -0.2012,-2.0363 -0.0755,-2.1204 0.0841,-0.0501 0.6957,-0.2678 1.3578,-0.4773 0.7876,-0.2513 1.5838,-0.4109 2.3379,-0.4609 0.6284,-0.042 1.5839,-0.0086 2.1454,0.0757 0.5528,0.0749 2.1453,0.4187 3.5279,0.762 1.3913,0.3353 2.9248,0.6541 3.4107,0.7042l0.8881 0.0841c-0.1592,-1.4333 -0.4772,-3.0672 -0.8213,-4.5677 -0.3431,-1.4917 -0.687,-3.3602 -0.7704,-4.1644 -0.1091,-1.1065 -0.1091,-1.7936 0,-2.8995 0.0834,-0.7962 0.2261,-1.7937 0.3181,-2.2124 0.1006,-0.4111 0.1506,-0.7798 0.1173,-0.8133 -0.0338,-0.0414 -0.528,0.0335 -1.0975,0.1597 -0.5701,0.1257 -1.626,0.3267 -2.3552,0.4354 -1.2571,0.1932 -1.3904,0.1932 -2.4635,-0.0251 -0.6287,-0.1257 -1.8186,-0.4189 -2.6484,-0.6536 -0.8377,-0.2262 -1.8851,-0.4437 -2.338,-0.4773 -0.4774,-0.0421 -1.1396,0.008 -1.5753,0.1085z"/>
   <path class="fil1" d="M80.2035 95.8178c-0.762,0.1591 -1.7844,0.3353 -2.2708,0.3773 -0.6201,0.0587 -1.1394,0.025 -1.7346,-0.1175 -0.4693,-0.1086 -0.8798,-0.2013 -0.9132,-0.2013 -0.0419,0 -0.0671,0.6791 -0.0671,1.5169l0 1.5088 6.1846 0c0.0084,-0.9304 0.1089,-1.693 0.2261,-2.2965 0.134,-0.6701 0.1677,-1.106 0.0921,-1.0975 -0.0672,0.0079 -0.7541,0.142 -1.517,0.3098zm-8.966 0l0 0c-0.2769,0.1006 -0.6621,0.3439 -0.8634,0.528 -0.2012,0.1926 -0.4693,0.5784 -0.595,0.8547 -0.1505,0.3188 -0.2346,0.7877 -0.2346,1.2657 0,0.4943 0.0841,0.9552 0.2598,1.324 0.134,0.3098 0.3517,0.6701 0.4694,0.8042 0.1169,0.1256 0.4271,0.3353 0.6869,0.4694 0.2597,0.1341 0.637,0.2348 0.8464,0.2348 0.2095,0 0.5699,-0.0757 0.7875,-0.1678 0.2268,-0.0921 0.6285,-0.4189 0.8883,-0.7206 0.3018,-0.3602 0.52,-0.7876 0.612,-1.1901 0.0835,-0.3438 0.1092,-0.8718 0.0671,-1.1649 -0.042,-0.302 -0.1846,-0.7542 -0.3182,-1.014 -0.1263,-0.2597 -0.4111,-0.6284 -0.6287,-0.8213 -0.2182,-0.184 -0.612,-0.4023 -0.8717,-0.4692 -0.2598,-0.0671 -0.5029,-0.1257 -0.5363,-0.1172 -0.0337,0 -0.2848,0.0836 -0.5695,0.1842zm-3.344 0.2433l0 0c0,0.0755 0.2852,2.6898 0.6456,5.8076 0.3518,3.1255 0.6699,5.7647 0.7121,5.8738 0.0419,0.1007 0.1254,-0.1256 0.1925,-0.5108 0.0587,-0.3774 0.0844,-1.5753 0.0507,-2.6482 -0.042,-1.0724 -0.1598,-2.5814 -0.2682,-3.3434 -0.1093,-0.7627 -0.4025,-2.2124 -0.6536,-3.2184 -0.2432,-1.0053 -0.4944,-1.8851 -0.5615,-1.9606 -0.0841,-0.0842 -0.1176,-0.0842 -0.1176,0z"/>
   <path class="fil2" d="M149.5817 96.522c-0.7288,0.2847 -1.4228,0.5363 -1.5495,0.5614 -0.1177,0.0334 -0.2183,0.1085 -0.2183,0.1841 0,0.067 0.3362,0.9888 0.7551,2.0448 0.4685,1.2066 0.9124,2.112 1.164,2.4136 0.3609,0.4189 0.5034,0.4944 1.0475,0.5444 0.4859,0.0421 0.7217,0 1.0388,-0.2012 0.2271,-0.142 0.4946,-0.3939 0.595,-0.5444 0.1093,-0.1592 0.2271,-0.4859 0.2605,-0.7292 0.0597,-0.3432 -0.1004,-0.8968 -0.7376,-2.5812 -0.4437,-1.1816 -0.8628,-2.1618 -0.921,-2.1782 -0.0597,-0.0172 -0.704,0.2006 -1.4344,0.4859z"/>
   <path class="fil1" d="M123.7047 97.5443c-0.0084,0.0585 -0.1175,1.0474 -0.2517,2.2124 -0.1336,1.1645 -0.3097,2.9496 -0.3767,3.972 -0.0756,1.0308 -0.1343,3.5279 -0.1343,5.5555 0,2.0285 0.0587,4.4836 0.1257,5.4559 0.0756,0.9718 0.2182,2.5642 0.3268,3.536 0.1006,0.9724 0.3354,2.7069 0.5114,3.8468 0.1756,1.1481 0.5359,3.1929 0.8042,4.5501 0.2683,1.3496 0.7962,3.7962 1.1816,5.4222 0.3859,1.6339 0.9887,4.1311 1.3411,5.5558 0.3519,1.4247 0.6621,2.6147 0.6956,2.6484 0.0336,0.0334 0.1757,-0.2183 0.3184,-0.57 0.1504,-0.3434 0.5192,-1.3407 0.8383,-2.204 0.3096,-0.8718 0.7875,-2.4301 1.0552,-3.4694 0.2683,-1.0474 0.6035,-2.4887 0.7377,-3.2178 0.1426,-0.7291 0.3519,-2.1539 0.4778,-3.1592 0.1593,-1.3156 0.2264,-2.7234 0.2177,-5.0449 0,-2.3045 -0.0584,-3.7294 -0.2177,-4.9863 -0.126,-0.9719 -0.4194,-2.732 -0.654,-3.9134 -0.2428,-1.1816 -0.6699,-2.9161 -0.9553,-3.8463 -0.2763,-0.9384 -0.8292,-2.5057 -1.2152,-3.4776 -0.3853,-0.9723 -1.0638,-2.5054 -1.5167,-3.4022 -0.4523,-0.9054 -1.2402,-2.3552 -1.7511,-3.2179 -0.5199,-0.8718 -1.0813,-1.7516 -1.2491,-1.9612 -0.1671,-0.2098 -0.3099,-0.3354 -0.3099,-0.2848z"/>
   <path class="fil2" d="M143.4651 98.8685c-1.1988,0.4524 -1.8687,0.7706 -1.8606,0.8797 0.0084,0.0921 0.3773,1.0646 0.813,2.1533 0.4274,1.0895 0.8968,2.1539 1.0389,2.3636 0.1342,0.2013 0.4529,0.5022 0.6957,0.662 0.2432,0.1592 0.612,0.2934 0.8213,0.2934 0.2096,0 0.6292,-0.1342 0.9463,-0.2854 0.3115,-0.1592 0.6954,-0.4858 0.8642,-0.7284 0.2517,-0.3775 0.2853,-0.545 0.2255,-1.1401 -0.0334,-0.3769 -0.3186,-1.3992 -0.6197,-2.2711 -0.3099,-0.8632 -0.6706,-1.81 -0.7958,-2.1033l-0.2431 -0.5278 -1.8857 0.704z"/>
   <path class="fil3" d="M75.2342 100.4018l0.0507 1.4997c1.9529,0.2348 3.369,0.3439 4.3994,0.3859l1.8686 0.0921c-0.1256,-0.6869 -0.1673,-1.4662 -0.1843,-2.1787l-0.0249 -1.2906 -6.1508 -0.008 0.0413 1.4997z"/>
   <path class="fil1" d="M21.8784 100.3683c-0.3519,0.0921 -0.9469,0.3268 -1.3242,0.5115 -0.419,0.2006 -1.0558,0.6949 -1.5837,1.2314 -0.6032,0.6121 -1.0304,1.1901 -1.3574,1.8437 -0.2766,0.5615 -0.5697,1.4246 -0.721,2.1452 -0.1335,0.6536 -0.2513,1.5418 -0.2513,1.9527 0,0.419 0.0841,1.0975 0.1928,1.5169 0.109,0.4189 0.4024,1.123 0.6535,1.5753 0.2518,0.4524 0.8468,1.2066 1.3155,1.676 0.6037,0.595 1.1402,0.9803 1.7771,1.282 0.511,0.2348 1.3157,0.545 1.8017,0.6871 0.4858,0.1342 1.2572,0.3188 1.7095,0.4025 0.4772,0.092 1.2905,0.1256 1.9527,0.092 0.7207,-0.0421 1.3906,-0.1677 1.8266,-0.3353 0.3854,-0.1507 0.9974,-0.4688 1.3577,-0.7121 0.3689,-0.2433 0.9046,-0.6871 1.2065,-0.9974 0.2932,-0.3019 0.7461,-0.9133 1.006,-1.3571 0.2681,-0.4359 0.6284,-1.2571 0.804,-1.8107 0.1763,-0.553 0.3525,-1.4662 0.394,-2.0193 0.042,-0.6034 0.0085,-1.341 -0.0835,-1.827 -0.0835,-0.4524 -0.3519,-1.2316 -0.5866,-1.7344 -0.2852,-0.595 -0.6869,-1.1731 -1.1566,-1.651 -0.4022,-0.4023 -1.123,-0.9717 -1.6087,-1.2571 -0.4865,-0.2847 -1.2572,-0.637 -1.7095,-0.7878 -0.4531,-0.1506 -1.1902,-0.3516 -1.6431,-0.4523 -0.4438,-0.0921 -1.3825,-0.1676 -2.0779,-0.1591 -0.6954,0 -1.5503,0.0837 -1.894,0.1842zm50.4398 1.4498l0 0c-0.5279,0.0584 -1.3326,0.2262 -1.8015,0.3688l-0.8554 0.2513c0.0507,1.9356 0.0928,2.5391 0.1263,2.5726 0.0334,0.042 0.3769,0.0085 0.7626,-0.0756 0.4104,-0.1007 1.5497,-0.1592 2.8405,-0.1507 1.3412,0 2.7153,0.0836 3.6538,0.2263 0.8381,0.1177 2.3299,0.2597 3.3189,0.3103 1.1731,0.0501 1.8016,0.0415 1.793,-0.042 0,-0.0671 -0.0755,-0.4359 -0.1757,-0.8212 -0.1006,-0.3853 -0.2433,-1.006 -0.3188,-1.3911l-0.1342 -0.6872c-2.983,-0.1426 -4.4999,-0.2597 -5.296,-0.3688 -0.8049,-0.1005 -1.7936,-0.2091 -2.2124,-0.2427 -0.4189,-0.0335 -1.1816,-0.0085 -1.7011,0.0501z"/>
   <path class="fil2" d="M22.6325 103.3183c-0.2763,0.0586 -0.7291,0.2177 -1.0055,0.3518 -0.2766,0.1422 -0.7289,0.4774 -0.9973,0.7456 -0.2683,0.2682 -0.6369,0.7962 -0.8212,1.1815 -0.2433,0.5115 -0.3352,0.9474 -0.3773,1.7016 -0.0337,0.7955 0.0084,1.1309 0.1933,1.5753 0.1334,0.3098 0.4936,0.8462 0.804,1.1816 0.3103,0.3353 0.7962,0.7376 1.0731,0.9048 0.2763,0.1596 1.0389,0.4778 1.7007,0.7041 1.0227,0.3518 1.3743,0.4109 2.3967,0.4109 0.9724,0 1.3157,-0.0506 1.8015,-0.2769 0.3276,-0.1506 0.8719,-0.5194 1.1986,-0.8211 0.3518,-0.3268 0.7206,-0.8297 0.9055,-1.2322 0.167,-0.3853 0.3268,-1.0304 0.3602,-1.4997 0.0416,-0.5615 0,-1.0224 -0.1425,-1.4497 -0.1093,-0.3519 -0.3689,-0.8719 -0.578,-1.1731 -0.2183,-0.2938 -0.7376,-0.7627 -1.1736,-1.0393 -0.4359,-0.2847 -1.2151,-0.6451 -1.7345,-0.8127 -0.528,-0.1762 -1.2906,-0.3689 -1.7096,-0.4444 -0.4109,-0.0751 -0.8966,-0.1256 -1.0729,-0.1172 -0.1756,0.0086 -0.5443,0.0587 -0.8212,0.1092z"/>
   <path class="fil3" d="M71.4971 104.7845c-0.2099,0.0336 -0.6621,0.1171 -1.014,0.1842l-0.6284 0.1262c-0.2183,2.8825 -0.2769,3.7373 -0.2682,3.7543 0.0083,0.025 0.4357,-0.1006 0.9637,-0.2768 0.5194,-0.1677 1.3156,-0.3774 1.768,-0.4444 0.4438,-0.0751 1.1901,-0.1336 1.634,-0.1336 0.4522,-0.0085 1.3326,0.0836 1.9613,0.1927 0.6199,0.1086 2.0192,0.4189 3.092,0.6871 1.0726,0.2762 2.3296,0.553 2.774,0.6285 0.4524,0.0671 0.8964,0.1256 0.9805,0.1256 0.092,0 0.1591,-0.1591 0.1591,-0.3773 0,-0.2092 -0.1172,-0.9554 -0.2599,-1.6674 -0.1425,-0.7122 -0.3101,-1.4919 -0.3772,-1.7345l-0.1087 -0.4445c-2.8995,-0.1426 -4.3328,-0.2761 -5.0618,-0.3769 -0.7293,-0.109 -2.204,-0.2182 -3.2849,-0.2432 -1.0725,-0.0335 -2.1283,-0.0249 -2.3295,0zm20.0033 7.8104l0 0 0 7.5084c0.7369,0.1007 1.6339,0.2098 2.4635,0.3104 0.8377,0.1085 2.8241,0.3348 4.4245,0.5109 1.5923,0.1762 4.4669,0.4609 6.369,0.6285 1.9107,0.1762 4.8102,0.4024 6.444,0.5109 1.626,0.1091 4.8102,0.2347 7.0648,0.2683 2.2624,0.0335 4.173,0.017 4.2486,-0.0415 0.1007,-0.0757 0.0756,-0.5535 -0.0921,-1.7437 -0.1254,-0.8962 -0.3266,-2.6647 -0.4523,-3.9133 -0.176,-1.8186 -0.2098,-3.1842 -0.1846,-6.905l0.0419 -4.6425 -30.3272 0 0 7.5085z"/>
   <path class="fil1" d="M143.3729 112.1169c0.0166,0.8211 0.0585,1.5503 0.075,1.6174 0.0257,0.067 0.8132,0.3774 1.7517,0.6955l1.7094 0.57c0.118,3.2263 0.1675,4.6091 0.1849,5.1621l0.0248 0.9973 -3.2847 1.4247c0,2.4637 0.0334,3.2177 0.0671,3.2598 0.0334,0.0416 3.4445,-1.4082 7.5748,-3.2183 4.132,-1.818 7.5087,-3.3098 7.5174,-3.3183 0.0088,-0.0086 -0.0248,-0.7542 -0.0582,-1.651l-0.0756 -1.6253c-11.6404,-4.0816 -15.1347,-5.2967 -15.2775,-5.3382 -0.2426,-0.059 -0.251,-0.0085 -0.2091,1.4242z"/>
   <path class="fil2" d="M149.6501 117.908c0.0407,1.1059 0.0829,2.0191 0.1004,2.0363 0.0087,0.0164 1.1231,-0.4111 2.4805,-0.9555 1.3574,-0.5363 2.5723,-1.0393 2.7149,-1.1144 0.1338,-0.0671 0.1935,-0.1598 0.1265,-0.1932 -0.0683,-0.0415 -1.2323,-0.419 -2.5911,-0.8548 -1.3486,-0.4352 -2.5634,-0.8127 -2.6813,-0.8547 -0.2096,-0.0671 -0.2183,0.0671 -0.1499,1.9363z"/>
   <path class="fil1" d="M78.4357 119.4918c-0.6957,0.0586 -1.9108,0.1927 -2.715,0.3013 -0.7962,0.1091 -2.4135,0.3939 -3.5951,0.6285 -1.1815,0.2432 -3.1091,0.7206 -4.2907,1.0644 -1.1816,0.344 -2.5477,0.7712 -3.0337,0.9554 -0.4859,0.1762 -1.0473,0.3939 -1.2486,0.4773l-0.3689 0.1512c0.1342,1.5669 0.2519,3.1592 0.3519,4.5504 0.1004,1.3827 0.2268,3.8715 0.2854,5.5224 0.0583,1.9107 0.1421,2.9752 0.2262,2.9502 0.0671,-0.0336 0.8047,-0.2098 1.6423,-0.3939 0.8297,-0.1847 2.3045,-0.4778 3.2768,-0.637 0.9719,-0.1676 2.5392,-0.3854 3.4776,-0.4945 0.9304,-0.1091 2.749,-0.2597 4.0389,-0.3352 1.4498,-0.0921 3.7878,-0.1257 6.1851,-0.0757 2.1197,0.0421 4.9021,0.1592 6.1842,0.2683 1.282,0.1091 3.1593,0.2854 4.1646,0.3939 1.006,0.1005 4.6175,0.5279 8.02,0.9388 3.4025,0.4103 7.0056,0.8378 8.0201,0.9469 1.0054,0.1091 2.8239,0.2847 4.0388,0.3853 1.3579,0.1257 4.2238,0.2182 7.475,0.2518 3.4697,0.0335 5.2712,0.0165 5.2712,-0.067 0,-0.0757 -0.2177,-1.0224 -0.4945,-2.1204 -0.2766,-1.0896 -0.754,-3.1508 -1.0644,-4.5757 -0.3182,-1.4161 -0.7705,-3.662 -1.0139,-4.9776 -0.2433,-1.3242 -0.4693,-2.5979 -0.5107,-2.8412l-0.0671 -0.4438c-6.4025,-0.017 -9.5285,-0.1175 -11.3634,-0.2431 -1.7766,-0.1172 -5.0115,-0.3769 -7.1988,-0.578 -2.187,-0.2013 -5.514,-0.545 -7.383,-0.7542 -1.8772,-0.2183 -4.5755,-0.5534 -6.0004,-0.7541 -1.4241,-0.2012 -3.3097,-0.428 -4.1979,-0.5029 -0.8797,-0.0756 -2.7905,-0.1257 -4.2322,-0.1177 -1.4328,0.0086 -3.1842,0.0671 -3.8797,0.1262zm-59.6829 0.4944l0 0c-0.4024,0.0665 -1.0225,0.2598 -1.3913,0.4273 -0.3605,0.1671 -0.9218,0.578 -1.2401,0.9133 -0.3439,0.3689 -0.6871,0.8969 -0.8462,1.3321 -0.2183,0.5614 -0.2769,1.0059 -0.2769,1.9277 0,0.6621 0.0921,2.5807 0.2013,4.2573 0.1091,1.6839 0.2092,3.075 0.2177,3.1 0.0085,0.017 3.4024,-0.2006 7.534,-0.4773 4.1311,-0.2847 7.5671,-0.5279 7.6342,-0.5529 0.0835,-0.0335 0.1086,-0.5865 0.0671,-1.5003 -0.0335,-0.8042 -0.092,-1.4834 -0.1257,-1.5168 -0.0334,-0.0415 -1.031,0.0084 -2.2123,0.1091 -1.1816,0.0921 -2.4723,0.1676 -2.8746,0.1762l-0.7207 0c0,-0.8803 -0.0841,-1.9698 -0.1927,-2.9916 -0.1676,-1.643 -0.2432,-1.9698 -0.62,-2.7489 -0.2602,-0.5529 -0.6284,-1.0646 -0.9723,-1.3742 -0.3018,-0.2682 -0.8382,-0.6199 -1.1815,-0.7877 -0.3854,-0.1762 -0.9555,-0.3188 -1.4497,-0.3524 -0.4525,-0.0334 -1.1482,0 -1.5503,0.0592z"/>
   <path class="fil2" d="M18.6607 123.3797c-0.2434,0.1341 -0.5451,0.4025 -0.6621,0.595 -0.1178,0.2012 -0.252,0.612 -0.2935,0.9303 -0.0504,0.3103 -0.042,1.3071 0.0088,2.2039l0.0834 1.6424c1.6424,-0.1421 2.6148,-0.2342 3.2177,-0.2847l1.0896 -0.0922c-0.1171,-2.3465 -0.2348,-3.3104 -0.3354,-3.6622 -0.1085,-0.3438 -0.3517,-0.7791 -0.5529,-0.9719 -0.1927,-0.1846 -0.503,-0.3944 -0.6955,-0.4693 -0.1928,-0.0756 -0.5865,-0.1341 -0.8884,-0.1255 -0.2932,0 -0.729,0.1085 -0.9717,0.2341z"/>
   <path class="fil1" d="M143.8423 127.8382c-0.0419,0.2261 -0.1425,0.9052 -0.2266,1.5082 -0.0922,0.612 -0.1341,1.1065 -0.1008,1.1065 0.0422,0 1.517,0.2347 3.2851,0.5193 1.769,0.2849 3.2268,0.528 3.2355,0.553 0.0074,0.017 -0.176,1.3077 -0.4117,2.8576 -0.2343,1.5503 -0.4177,2.866 -0.4177,2.9166 -0.0086,0.0585 -0.16,0.1005 -0.3534,0.0921 -0.1921,0 -1.6833,-0.2178 -3.3099,-0.4859 -1.6336,-0.2769 -2.9832,-0.4859 -2.9912,-0.4779 -0.017,0.0171 -0.1426,0.704 -0.2767,1.5339 -0.1426,0.8376 -0.2513,1.5253 -0.2348,1.5417 0.0171,0.0165 2.02,0.3354 4.4498,0.7206 2.4296,0.3854 5.7234,0.8968 7.3166,1.1481 1.6002,0.2432 3.0158,0.4444 3.1584,0.4444 0.2256,0 0.2765,-0.1592 0.4787,-1.4834 0.1338,-0.8132 0.2167,-1.4918 0.192,-1.5002 -0.0246,-0.0165 -1.3486,-0.2347 -2.9417,-0.4859 -1.6004,-0.2597 -2.9157,-0.4773 -2.9332,-0.4859 -0.0159,-0.017 0.1761,-1.324 0.4191,-2.9245 0.2517,-1.5925 0.4787,-2.9332 0.5121,-2.9667 0.0334,-0.0336 1.2644,0.1256 2.7309,0.3519 1.4752,0.2262 2.8078,0.4109 2.9592,0.4109 0.1586,0 0.2851,-0.0507 0.2851,-0.1006 0.0073,-0.0506 0.0991,-0.7127 0.2256,-1.4668 0.1426,-0.8713 0.176,-1.3827 0.0917,-1.4077 -0.067,-0.025 -3.419,-0.5614 -7.449,-1.1901 -4.0226,-0.6285 -7.3918,-1.1395 -7.4753,-1.1395 -0.0844,0 -0.1843,0.1842 -0.218,0.4105z"/>
   <path class="fil3" d="M76.8602 134.1901c-0.3103,0.0255 -1.3662,0.1091 -2.3379,0.1847 -0.9724,0.075 -2.757,0.2763 -3.972,0.4524 -1.2157,0.1676 -3.0085,0.4773 -3.9808,0.687 -0.9719,0.2012 -1.9695,0.4189 -2.212,0.4944l-0.4359 0.1176c-0.134,6.5111 -0.2681,9.5699 -0.3773,10.9861 -0.1006,1.4247 -0.3097,3.6957 -0.4523,5.0533 -0.1343,1.3492 -0.2769,2.6393 -0.3104,2.8662 -0.0336,0.2261 -0.0164,0.4103 0.0335,0.4187 0.0507,0 0.6372,-0.2347 1.2907,-0.5278 0.6621,-0.2847 2.0283,-0.8298 3.0337,-1.1987 1.0058,-0.3769 2.5975,-0.9046 3.5364,-1.173 0.9384,-0.2683 2.3546,-0.637 3.1508,-0.8126 0.8047,-0.1762 2.1618,-0.4359 3.0335,-0.5786 0.8634,-0.1342 2.2288,-0.3182 3.0251,-0.4103 0.8048,-0.0841 2.9915,-0.1512 4.8608,-0.1512 1.877,0 4.1223,0.0671 4.9942,0.1592 0.8633,0.0841 2.3965,0.2681 3.4025,0.4109 1.0053,0.1341 3.1086,0.5029 4.6761,0.8211 1.5581,0.3104 4.7094,1.0475 7.0055,1.634 2.2879,0.5784 5.5894,1.4331 7.3244,1.8856 1.7344,0.4523 4.2902,1.0731 5.6812,1.3827 1.3828,0.3104 3.5198,0.7291 4.7346,0.9389 1.2157,0.2091 2.9166,0.4608 3.7879,0.5694 0.8633,0.1005 2.0447,0.2347 2.6233,0.2933l1.0388 0.0925c-0.1005,-0.8803 -0.2681,-2.2123 -0.4437,-3.528 -0.1677,-1.3241 -0.5115,-3.5115 -0.7627,-4.8607 -0.2431,-1.3577 -0.7291,-3.7123 -1.0729,-5.2376 -0.3434,-1.5247 -0.8964,-3.8883 -1.2316,-5.2376l-0.6035 -2.4637c-8.1956,-0.1255 -11.3384,-0.2431 -12.7461,-0.3602 -1.3155,-0.1172 -3.4439,-0.3268 -4.7345,-0.4695 -1.2822,-0.142 -4.8608,-0.5614 -7.9531,-0.9382 -3.092,-0.3775 -6.4439,-0.7713 -7.4499,-0.8718 -1.0053,-0.1085 -2.8826,-0.2848 -4.1646,-0.3939 -1.3661,-0.1171 -4.2235,-0.2177 -6.8799,-0.2427 -2.497,-0.017 -4.8015,-0.017 -5.112,0.008z"/>
   <path class="fil1" d="M26.9904 134.4833c-0.1763,0.0506 -0.6036,0.2433 -0.9469,0.4195 -0.3437,0.1756 -0.8548,0.5444 -1.1316,0.8127 -0.2682,0.2683 -0.637,0.7962 -0.8125,1.1731 -0.3271,0.6955 -0.3271,0.7206 -0.3271,4.0394 0,2.3881 -0.0503,3.444 -0.1596,3.6957 -0.0835,0.1929 -0.3434,0.4354 -0.5693,0.5446 -0.2262,0.1169 -0.5366,0.1676 -0.6958,0.1255 -0.1512,-0.042 -0.4607,-0.2262 -0.6789,-0.4189 -0.2263,-0.1926 -0.5616,-0.6871 -0.7542,-1.1059 -0.2013,-0.411 -0.3938,-1.0395 -0.4353,-1.3832 -0.0506,-0.3518 -0.0255,-0.8293 0.05,-1.0724 0.0757,-0.2433 0.3268,-0.6116 0.5615,-0.8213 0.2347,-0.2097 0.5279,-0.4358 0.645,-0.5109 0.1847,-0.1091 0.1597,-0.2517 -0.3182,-1.5089 -0.2848,-0.7626 -0.528,-1.4076 -0.5366,-1.4325 -0.0079,-0.0172 -0.2427,0.0334 -0.5194,0.117 -0.3268,0.1006 -0.7791,0.4273 -1.2737,0.9218 -0.5528,0.5529 -0.8466,0.9724 -1.0393,1.5004 -0.2012,0.5193 -0.2762,1.0053 -0.2762,1.7345 0,0.5528 0.0921,1.3911 0.2011,1.8607 0.1172,0.4686 0.4522,1.357 0.7543,1.9856 0.3268,0.6871 0.7626,1.3662 1.1228,1.7351 0.3185,0.3268 0.8127,0.7286 1.1147,0.8797 0.4523,0.2433 0.7289,0.2848 1.793,0.2848 1.1315,0 1.3326,-0.0336 1.894,-0.3354 0.3519,-0.1842 0.8127,-0.5193 1.039,-0.7541 0.2182,-0.2348 0.5536,-0.7627 0.7462,-1.1816 0.2262,-0.4944 0.3682,-1.0725 0.4189,-1.701 0.042,-0.5193 0.0334,-1.852 -0.017,-2.9666 -0.0665,-1.4918 -0.0501,-2.1704 0.0671,-2.5891 0.1175,-0.4111 0.2767,-0.6457 0.5949,-0.8554 0.2433,-0.1591 0.6206,-0.2847 0.8468,-0.2847 0.2262,0.0084 0.595,0.0841 0.8211,0.1761 0.2262,0.1006 0.5617,0.3434 0.7456,0.5359 0.1928,0.2012 0.486,0.6791 0.6707,1.0644 0.1757,0.3775 0.3603,1.0061 0.4023,1.3827 0.05,0.4274 0.0166,0.8883 -0.0841,1.1987 -0.0835,0.2762 -0.3104,0.7036 -0.4858,0.9467 -0.1846,0.2348 -0.5701,0.5786 -0.8548,0.7542l-0.528 0.3189c0.8798,2.0528 1.1568,2.6813 1.1902,2.7149 0.0336,0.0334 0.3853,-0.1091 0.7707,-0.3184 0.3859,-0.2012 0.9639,-0.6285 1.2905,-0.9468 0.3182,-0.3102 0.7377,-0.8802 0.9219,-1.2571 0.1926,-0.386 0.4109,-1.0646 0.4858,-1.5169 0.0925,-0.5785 0.0925,-1.098 0,-1.7685 -0.075,-0.5195 -0.2677,-1.3406 -0.4352,-1.8266 -0.1598,-0.4859 -0.4864,-1.2486 -0.7211,-1.693 -0.2428,-0.4437 -0.7207,-1.0975 -1.0641,-1.4577 -0.3524,-0.361 -0.9131,-0.7882 -1.2656,-0.9554 -0.503,-0.2517 -0.8547,-0.3188 -1.7682,-0.3352 -0.6198,-0.0172 -1.2735,0.0164 -1.4495,0.0749zm113.0385 9.1516l0 0c-0.2681,0.7955 -0.4608,1.4662 -0.4271,1.4997 0.0419,0.025 1.6594,0.6036 3.6036,1.2821 1.9442,0.6791 5.1702,1.7936 7.165,2.4807 3.2851,1.1309 3.6372,1.2236 3.7376,1.0224 0.0581,-0.1178 0.2939,-0.7713 0.5368,-1.4412 0.2342,-0.6707 0.4016,-1.2492 0.3594,-1.2742 -0.0335,-0.0251 -2.2202,-0.7707 -4.8607,-1.6675 -2.6304,-0.8883 -5.857,-2.0028 -7.1642,-2.4807 -1.2992,-0.4773 -2.3886,-0.8633 -2.4137,-0.8633 -0.025,0 -0.2682,0.6456 -0.5365,1.4419zm-0.9803 3.3853l0 0c0.1008,-0.1591 0.2099,-0.2853 0.2433,-0.2853 0.0337,0 1.1815,1.4668 2.5557,3.2519 1.3662,1.785 3.6118,4.6845 7.4752,9.6204l-0.7886 1.3491c-0.4262,0.7372 -0.87,1.3742 -0.9704,1.4077 -0.1092,0.0335 -0.6795,-0.0086 -1.2658,-0.0921 -0.595,-0.0841 -4.1737,-0.6621 -7.9537,-1.282 -3.7878,-0.62 -6.8963,-1.1316 -6.9133,-1.1316 -0.0166,0 -0.0336,-0.0499 -0.0336,-0.1256 0,-0.0671 0.3689,-0.7206 0.8212,-1.4497 0.7125,-1.148 0.8633,-1.3157 1.1065,-1.2657 0.1591,0.0335 0.9639,0.1762 1.8015,0.3188 1.1902,0.1928 1.5419,0.2178 1.6511,0.0921 0.0754,-0.0841 0.8046,-1.2486 1.6087,-2.5812 0.8127,-1.3407 1.4748,-2.4551 1.4748,-2.4972 0,-0.0335 -0.4688,-0.6451 -1.0304,-1.3576 -0.57,-0.7036 -1.0816,-1.3492 -1.1314,-1.4162 -0.0587,-0.067 0.184,-0.603 0.5363,-1.1981 0.3435,-0.587 0.7122,-1.1986 0.8127,-1.3577zm-104.3572 0.7292l0 0c0.5865,-0.3438 1.0896,-0.6285 1.1066,-0.6285 0.0166,0 1.3827,2.2373 3.0251,4.9777 1.6509,2.7485 2.9746,5.0115 2.941,5.0365 -0.0335,0.0249 -1.3155,0.7791 -2.8404,1.6845 -1.5338,0.9046 -4.4834,2.6727 -6.5702,3.9297 -2.0784,1.2658 -3.7878,2.2795 -3.7963,2.2546 -0.008,-0.0172 -1.2987,-2.1703 -2.8741,-4.7938 -1.5758,-2.6227 -2.8579,-4.8181 -2.8579,-4.8936 0,-0.0671 0.4942,-0.4111 1.1063,-0.7628 0.6031,-0.3518 1.1062,-0.6199 1.1145,-0.5949 0,0.0171 0.8713,1.4833 1.9271,3.2512 1.0561,1.7686 2.0116,3.3441 2.3552,3.7714l2.8075 -1.6844 -1.9362 -3.2178c-1.0639,-1.7765 -1.9357,-3.2769 -1.9442,-3.344 0,-0.0749 0.4864,-0.4272 2.1453,-1.4576l0.2933 0.4773c0.1596,0.2597 1.048,1.7345 1.9612,3.277 0.9132,1.5503 1.718,2.8069 1.7851,2.8069 0.0671,0 0.8798,-0.4524 1.8014,-1.0225 0.9135,-0.5614 1.6846,-1.0304 1.7011,-1.0389 0.0257,-0.0085 -0.3769,-0.6956 -0.8884,-1.5332 -0.5106,-0.8299 -1.4745,-2.4222 -2.1366,-3.5281 -0.6702,-1.1152 -1.2316,-2.0955 -1.2572,-2.1789 -0.0251,-0.0921 0.4273,-0.4358 1.0308,-0.7877z"/>
   <path class="fil2" d="M140.4985 156.2968l-1.0223 1.7351c0.7376,0.1591 2.0446,0.4103 3.3774,0.6699 1.3405,0.2519 2.43,0.4359 2.43,0.4025 0,-0.0336 -0.6536,-0.8883 -1.4667,-1.8943 -0.8043,-1.0053 -1.6176,-2.0106 -1.7931,-2.2374 -0.1846,-0.2261 -0.3774,-0.4103 -0.4193,-0.4103 -0.0501,0 -0.5446,0.7791 -1.1061,1.7345z"/>
   <path class="fil1" d="M121.2998 169.8561c-0.4359,0.1672 -0.9218,0.5023 -1.2906,0.8798 -0.3354,0.3354 -0.7121,0.8547 -0.8548,1.1481 -0.1342,0.2932 -0.3018,0.8381 -0.3774,1.1985 -0.0921,0.4689 -0.0921,0.8712 0.0085,1.3906 0.0756,0.394 0.2519,0.939 0.3775,1.1987 0.1341,0.2597 0.4523,0.7041 0.7121,0.9889 0.2682,0.2847 0.8212,0.6785 1.232,0.8796 0.6286,0.3104 0.9134,0.3774 1.676,0.369 0.5866,0 1.148,-0.0837 1.5754,-0.2433 0.3688,-0.1335 0.9389,-0.4945 1.2821,-0.7876 0.3851,-0.3519 0.7542,-0.8463 1.0059,-1.3657 0.3431,-0.7041 0.3938,-0.9468 0.3853,-1.768 0,-0.7547 -0.0756,-1.098 -0.344,-1.668 -0.184,-0.4025 -0.5777,-0.9719 -0.871,-1.2736 -0.3018,-0.2934 -0.8213,-0.6792 -1.1737,-0.8462 -0.4773,-0.2349 -0.8713,-0.319 -1.6423,-0.3439 -0.7963,-0.0251 -1.1567,0.0249 -1.701,0.2432zm-72.471 1.3492l0 0c-0.1763,0.0585 -0.5615,0.2262 -0.8548,0.3767 -0.2934,0.1512 -0.7292,0.4695 -0.9725,0.7128 -0.2425,0.2427 -0.5949,0.737 -0.779,1.1058 -0.2598,0.503 -0.3518,0.8968 -0.3938,1.6675 -0.0421,0.8383 0,1.1401 0.2433,1.7687 0.1925,0.5107 0.4942,0.9633 0.9217,1.3905 0.4352,0.4359 0.8882,0.7376 1.3991,0.9304 0.4779,0.1847 1.031,0.2932 1.5082,0.3018 0.4196,0 1.0731,-0.1007 1.4584,-0.2347 0.4609,-0.1592 0.9132,-0.4438 1.3661,-0.8713 0.3855,-0.3603 0.8127,-0.9303 1.0054,-1.3241 0.2599,-0.5615 0.3267,-0.8883 0.3353,-1.7094 0,-0.8213 -0.0505,-1.1317 -0.3182,-1.7017 -0.1761,-0.3853 -0.528,-0.9217 -0.7711,-1.198 -0.2514,-0.2767 -0.7542,-0.6705 -1.1318,-0.8803 -0.5613,-0.3098 -0.8461,-0.3768 -1.6843,-0.4018 -0.5609,-0.0171 -1.1561,0.0079 -1.3321,0.0671zm53.0375 5.966l0 0c-0.8546,0.2349 -0.9387,0.2854 -0.9132,0.5616 0.0079,0.1676 -0.0756,0.57 -0.1848,0.9052 -0.1091,0.3268 -0.4438,0.9639 -0.7456,1.4163 -0.2933,0.4523 -0.8968,1.1565 -1.3412,1.5668l-0.804 0.7462c0.4693,1.7765 0.6285,2.3379 0.6534,2.388 0.0251,0.0506 0.1593,0.042 0.2933,-0.0335 0.1426,-0.0671 0.6286,-0.4773 1.0895,-0.9134 0.4608,-0.4358 1.0059,-1.0309 1.1986,-1.324 0.2013,-0.2933 0.4105,-0.5365 0.4608,-0.5365 0.0501,0 0.7207,2.3635 1.4834,5.2461l1.3905 5.2462c0.5871,-0.0921 1.2236,-0.2513 1.8022,-0.4111 0.578,-0.167 1.0224,-0.3602 0.9974,-0.4272 -0.0335,-0.0671 -0.9304,-3.402 -1.9948,-7.4159 -1.7601,-6.5953 -1.9693,-7.2908 -2.1953,-7.2744 -0.1428,0 -0.6792,0.1262 -1.1902,0.2597zm-28.9865 1.2493l0 0c-0.386,0.3938 -0.9724,0.8042 -1.5085,1.0639 -0.4863,0.2347 -1.1985,0.5114 -1.5837,0.6121 -0.3774,0.1085 -0.8884,0.2262 -1.1315,0.2597l-0.4444 0.0756c-0.4523,1.9106 -0.5694,2.48 -0.5444,2.5051 0.0171,0.017 0.3774,0 0.7961,-0.0415 0.419,-0.042 1.2402,-0.2433 1.8267,-0.4529 0.5949,-0.2092 1.1822,-0.4189 1.2989,-0.4688 0.2013,-0.0756 0.1843,0.067 -0.159,1.2985 -0.2098,0.7627 -0.8547,3.1513 -1.4412,5.3047 -0.5785,2.1453 -1.048,3.9219 -1.0394,3.9389 0.0085,0.0164 0.6454,0.2012 1.4077,0.4019 0.7625,0.2097 1.3997,0.3688 1.4081,0.3524 0.0165,-0.0172 0.9048,-3.302 1.9943,-7.3158 1.0809,-4.0061 1.9612,-7.3665 1.9527,-7.45 -0.0084,-0.1007 -0.394,-0.2598 -0.9803,-0.4025 -0.5279,-0.1255 -1.0224,-0.2512 -1.098,-0.2763 -0.0671,-0.0254 -0.411,0.2427 -0.7541,0.5951zm7.1903 0.8463l0 0c-0.3524,0.1169 -0.8803,0.3938 -1.1822,0.595 -0.3012,0.2091 -0.737,0.6114 -0.9633,0.8882 -0.2261,0.2761 -0.5279,0.7626 -0.6705,1.0724 -0.1426,0.3103 -0.3269,0.9638 -0.411,1.4497 -0.117,0.6536 -0.1257,1.1145 -0.0249,1.7686 0.0671,0.4859 0.2683,1.1981 0.4358,1.5753 0.1761,0.3855 0.5194,0.9218 0.7626,1.1982 0.2512,0.2767 0.7292,0.6619 1.0645,0.8467 0.3433,0.1842 0.9889,0.3939 1.4413,0.4688 0.5363,0.0841 1.0139,0.0841 1.391,0.0085 0.3098,-0.0671 0.8378,-0.2932 1.1645,-0.5029 0.3269,-0.2091 0.6287,-0.3769 0.6621,-0.3769 0.0334,0 -0.0249,0.4439 -0.1342,0.9805 -0.109,0.5364 -0.3267,1.257 -0.4771,1.5923 -0.1513,0.3433 -0.4609,0.7791 -0.6792,0.9803 -0.2263,0.2013 -0.595,0.3939 -0.8212,0.4275 -0.2261,0.042 -0.6366,0 -0.9134,-0.0922 -0.3267,-0.1091 -0.6034,-0.3183 -0.7961,-0.6036 -0.1591,-0.2425 -0.2848,-0.5698 -0.2848,-0.729 0,-0.2513 -0.0585,-0.2847 -0.5949,-0.2847 -0.3354,0 -0.989,0.042 -1.4584,0.0921l-0.8633 0.1005c0.1257,0.7791 0.2933,1.2906 0.4444,1.6344 0.1593,0.3518 0.4525,0.8293 0.6702,1.0724 0.2096,0.2433 0.7462,0.6116 1.19,0.8213 0.729,0.3438 0.9218,0.3775 2.1287,0.3775 1.2153,0.0078 1.3907,-0.0257 2.1454,-0.3775 0.4524,-0.2177 1.0811,-0.6201 1.3907,-0.8968 0.3103,-0.2848 0.7796,-0.9048 1.031,-1.3827 0.2596,-0.4773 0.5783,-1.3241 0.7206,-1.8857 0.1424,-0.5529 0.3267,-1.6338 0.4023,-2.3965 0.0835,-0.7792 0.1091,-1.8858 0.067,-2.5222 -0.0506,-0.6285 -0.1678,-1.4917 -0.2683,-1.9278 -0.1006,-0.4272 -0.3433,-1.1059 -0.5363,-1.4996 -0.1841,-0.4025 -0.6115,-0.9975 -0.947,-1.3327 -0.3267,-0.3268 -0.9217,-0.7542 -1.324,-0.9468 -0.595,-0.2767 -0.9382,-0.3438 -1.9187,-0.3774 -0.9052,-0.0335 -1.3577,0.0086 -1.8435,0.1848zm11.4968 -0.1007l0 0c0.2767,-0.0585 0.9302,-0.0922 1.4497,-0.0671 0.7126,0.025 1.1485,0.1257 1.7516,0.4024 0.4942,0.2263 1.0143,0.5865 1.3412,0.9304 0.2932,0.3183 0.6284,0.7705 0.762,1.0138 0.1262,0.2427 0.2517,0.8127 0.2939,1.2572 0.05,0.7036 0.0164,0.9218 -0.2605,1.5169 -0.209,0.4437 -0.5693,0.9132 -0.9967,1.29 -0.595,0.5199 -0.6457,0.6034 -0.4274,0.6705 0.1422,0.0501 0.419,0.1506 0.6287,0.2263 0.2091,0.0841 0.5949,0.3017 0.8546,0.4943 0.3013,0.2182 0.6199,0.637 0.8627,1.1401 0.3689,0.7371 0.386,0.8547 0.344,1.9858 -0.0422,1.0808 -0.0922,1.2742 -0.4859,2.0026 -0.2432,0.4444 -0.7041,1.056 -1.0395,1.3577 -0.3268,0.3019 -0.9218,0.7041 -1.3236,0.8968 -0.6621,0.3183 -0.8467,0.3518 -2.2379,0.3518 -1.3907,0 -1.5753,-0.0335 -2.2454,-0.3518 -0.394,-0.1927 -0.989,-0.5949 -1.324,-0.8968 -0.3271,-0.3098 -0.7462,-0.8632 -0.9305,-1.2315 -0.1841,-0.3774 -0.3689,-0.8633 -0.4102,-1.0896 -0.0757,-0.3859 -0.0508,-0.4109 0.3345,-0.4779 0.2263,-0.0334 0.8548,-0.1341 1.3999,-0.2176 0.645,-0.1006 1.0054,-0.1092 1.0309,-0.0335 0.0249,0.0755 0.1006,0.3268 0.1756,0.57 0.067,0.2426 0.2852,0.5943 0.478,0.7791 0.1927,0.1926 0.5108,0.4024 0.7035,0.4773 0.1847,0.0757 0.5615,0.1341 0.8211,0.1341 0.2604,0 0.6957,-0.1341 0.9724,-0.2847 0.3354,-0.1842 0.6116,-0.4779 0.7962,-0.8548 0.2514,-0.4692 0.2848,-0.7205 0.2599,-1.5252 -0.0337,-0.8043 -0.0922,-1.0225 -0.394,-1.4163 -0.1847,-0.2512 -0.5113,-0.5444 -0.7206,-0.6535 -0.2097,-0.1006 -0.62,-0.1841 -0.9139,-0.1841 -0.3012,0 -0.7205,0.0499 -1.357,0.2512l0 -0.5364c0,-0.3019 0.0337,-0.8213 0.1421,-1.8016l0.6199 -0.1592c0.344,-0.0841 0.7713,-0.2517 0.9554,-0.3774 0.1848,-0.117 0.4358,-0.4358 0.5701,-0.6956 0.1256,-0.2597 0.2346,-0.6285 0.2346,-0.8213 0,-0.1841 -0.1254,-0.6028 -0.2848,-0.9132 -0.2262,-0.4523 -0.3858,-0.6035 -0.7875,-0.7292 -0.4026,-0.134 -0.6207,-0.134 -1.0731,-0.0164 -0.3097,0.0835 -0.7205,0.3018 -0.9047,0.4773 -0.1846,0.1848 -0.4109,0.612 -0.6791,1.5674l-0.8798 -0.0841c-0.486,-0.05 -1.0725,-0.1257 -1.3071,-0.1762 -0.4194,-0.0921 -0.4194,-0.1001 -0.3437,-0.5944 0.0504,-0.2769 0.2097,-0.7882 0.3688,-1.1401 0.1592,-0.3434 0.4858,-0.8547 0.7376,-1.1315 0.2512,-0.2763 0.7876,-0.6701 1.1896,-0.8713 0.4108,-0.1926 0.9723,-0.4109 1.2486,-0.4608z"/>
   <path class="fil2" d="M80.8322 181.6719c-0.3768,0.1676 -0.578,0.3853 -0.8127,0.8547 -0.2684,0.5279 -0.3183,0.7963 -0.3183,1.8186 0,0.9553 0.0499,1.2986 0.2512,1.6845 0.1427,0.2677 0.419,0.595 0.6284,0.7286 0.2514,0.1511 0.6287,0.2347 1.1062,0.2347 0.6204,0 0.7881,-0.0501 1.123,-0.3433 0.2183,-0.1926 0.4693,-0.5029 0.5698,-0.6955 0.0921,-0.1928 0.2262,-0.5866 0.2933,-0.8798 0.0757,-0.3189 0.0757,-0.8213 0.017,-1.2322 -0.0589,-0.3854 -0.2182,-0.9218 -0.3437,-1.1901 -0.1342,-0.2767 -0.4104,-0.6285 -0.6201,-0.7877 -0.2012,-0.1676 -0.6035,-0.3268 -0.8798,-0.3603 -0.3437,-0.0506 -0.6704,0.0085 -1.0143,0.1677z"/>
  </g>
 </g>
</svg>
